<svg id="Capa_1" enable-background="new 0 0 512 512" height="512" viewBox="0 0 512 512" width="512" xmlns="http://www.w3.org/2000/svg"><g><g><path d="m478.127 511.999h-24.665c-2.886 0-5.225-2.339-5.225-5.225v-336.455c-44.005-62.76-115.474-100.07-192.237-100.07s-148.232 37.31-192.236 100.07v336.455c0 2.886-2.339 5.225-5.225 5.225h-24.666c-2.886 0-5.225-2.339-5.225-5.225v-347.219l2.963-4.431c50.245-75.135 134.129-119.991 224.389-119.991s174.144 44.857 224.389 119.992l2.963 4.431v347.218c0 2.885-2.339 5.225-5.225 5.225z" fill="#dcfeff"/></g><g fill="#b6f0ff"><path d="m28.644 194.441v40.357c2.916 2.41 5.16 5.632 6.173 9.266 5.456 19.574 10.756 39.227 14.375 59.238 12.472 68.949 2.888 128.238-20.548 159.548v43.925c0 2.886 2.339 5.225 5.225 5.225h24.674c2.886 0 5.225-2.339 5.225-5.225v-312.334z"/><path d="m256 35.131c-34.865 0-68.775 6.698-100.164 19.243 12.1 7.155 23.44 15.954 33.79 25.45 21.275-6.266 43.587-9.578 66.374-9.578 24.675 0 48.796 3.875 71.641 11.192 7.023-10.631 15.179-20.335 24.579-28.604-30.278-11.551-62.81-17.703-96.22-17.703z"/><path d="m448.231 239.891v126.446c17.563 13.228 27.879 40.458 35.125 112.168v-238.614z"/></g><g><path d="m209.117 38.226s-56.781 129.928-176.776 136.818c-5.567.32-9.947 4.862-9.947 10.438v90.164c0 6.923 6.603 11.916 13.274 10.062 46.496-12.923 199.204-68.956 199.204-247.483h-25.755z" fill="#5cceff"/><path d="m73.362 193.847c-2.268 3.24-7.201 4.024-12.75 2.55-.199 4.264-1.829 7.598-4.682 8.643-3.919 1.442-8.883-1.923-12.175-7.775-1.317 1.735-2.832 3.041-4.483 3.804-.345 8.695-4.201 15.519-9.51 15.979-2.655.23-5.236-1.181-7.368-3.72v-27.841c0-5.581 4.379-10.127 9.949-10.44 9.51-.543 18.623-1.871 27.35-3.835 1.442.7 2.884 1.547 4.295 2.529 8.695 6.071 12.886 15.069 9.374 20.106z" fill="#27b2ff"/><path d="m22.464 273.566s160.243-31.907 195.257-184.418c0 0-76.545 142.658-195.326 150.827z" fill="#27b2ff"/><path d="m302.883 38.226s56.781 129.928 176.776 136.818c5.567.32 9.947 4.862 9.947 10.438v90.164c0 6.923-6.603 11.916-13.274 10.062-46.496-12.923-199.204-68.956-199.204-247.483h25.755z" fill="#5cceff"/><path d="m479.657 175.046c-9.51-.543-18.623-1.871-27.35-3.835-1.442.7-2.884 1.547-4.295 2.529-8.695 6.072-12.886 15.07-9.374 20.107 2.268 3.24 7.201 4.024 12.75 2.55.199 4.264 1.829 7.598 4.682 8.643 3.056 1.125 6.747-.674 9.785-4.295 1.3-1.55 3.574-1.84 5.214-.656l.047.034c.997.719 1.635 1.831 1.773 3.053.001.012.003.024.004.036.128 1.124-.12 2.262-.732 3.213-15.29 23.751-41.945 39.488-72.285 39.488-4.41 0-8.747-.334-12.98-.972 35.752 23.702 70.971 35.637 89.438 40.768 6.667 1.85 13.272-3.135 13.272-10.064v-62.318-27.841c0-5.58-4.379-10.126-9.949-10.44z" fill="#27b2ff"/><path d="m489.606 229.034s-120.343-22.725-179.47-121.706c0 0 35.758 117.663 179.47 159.58z" fill="#27b2ff"/><path d="m489.606 229.035v37.874c-23.368-6.814-43.883-15.634-61.848-25.625 12.436-4.253 23.577-11.287 32.701-20.358 17.641 5.935 29.147 8.109 29.147 8.109z" fill="#008cff"/></g><g><path d="m227.139 154.22c-3.313 0-6-2.687-6-6v-7.53c0-7.691 6.257-13.949 13.949-13.949h.738c1.42 0 2.576-1.155 2.576-2.576s-1.156-2.576-2.576-2.576h-.738c-7.691 0-13.949-6.257-13.949-13.949 0-6.755 4.828-12.405 11.215-13.679-6.24-.335-11.215-5.518-11.215-11.84v-24.682c0-3.313 2.687-6 6-6s6 2.687 6 6v24.539h5.406c6.538 0 11.857 5.319 11.857 11.857s-5.319 11.857-11.857 11.857h-3.457c-1.075 0-1.949.874-1.949 1.948 0 1.075.874 1.949 1.949 1.949h.738c8.037 0 14.576 6.539 14.576 14.576s-6.539 14.576-14.576 14.576h-.738c-1.075 0-1.949.874-1.949 1.949v7.53c0 3.313-2.687 6-6 6z" fill="#fc708a"/></g><g><path d="m286.191 208.973c-3.313 0-6-2.687-6-6v-7.53c0-1.075-.874-1.949-1.948-1.949h-.737c-8.037 0-14.576-6.539-14.576-14.576s6.539-14.576 14.576-14.576h.737c1.074 0 1.948-.874 1.948-1.949 0-1.074-.874-1.948-1.948-1.948h-3.457c-6.538 0-11.856-5.319-11.856-11.857s5.318-11.857 11.856-11.857h5.405v-79.292c0-3.313 2.687-6 6-6s6 2.687 6 6v79.436c0 6.322-4.975 11.505-11.215 11.84 6.387 1.274 11.215 6.924 11.215 13.679 0 7.691-6.257 13.949-13.948 13.949h-.737c-1.421 0-2.576 1.156-2.576 2.576s1.155 2.576 2.576 2.576h.737c7.691 0 13.948 6.257 13.948 13.949v7.53c0 3.313-2.686 5.999-6 5.999z" fill="#fc708a"/></g><g><g><path d="m36.286 428.45c-3.313 0-6-2.687-6-6v-6.06c0-.219-.178-.396-.396-.396h-.594c-7.114 0-12.902-5.788-12.902-12.902s5.788-12.902 12.902-12.902h.594c.219 0 .396-.178.396-.396s-.178-.397-.396-.397h-2.782c-5.907 0-10.713-4.806-10.713-10.713s4.805-10.714 10.713-10.714h3.133l-1.209-36.482c-.11-3.312 2.486-6.085 5.798-6.195 3.322-.13 6.085 2.486 6.195 5.798l1.262 38.167c0 4.329-2.581 8.066-6.284 9.754 3.75 2.134 6.284 6.168 6.284 10.782 0 6.835-5.561 12.396-12.396 12.396h-.594c-.497 0-.902.405-.902.902s.405.902.902.902h.594c6.835 0 12.396 5.561 12.396 12.396v6.06c-.001 3.313-2.687 6-6.001 6z" fill="#fc708a"/></g><ellipse cx="32.584" cy="343.036" fill="#08c165" rx="9.108" ry="15.744"/><ellipse cx="45.395" cy="327.292" fill="#79ff79" rx="11.111" ry="19.206" transform="matrix(.933 -.36 .36 .933 -114.694 38.238)"/><g><path d="m58.828 385.565c-3.313 0-6-2.687-6-6v-6.06c0-6.836 5.561-12.397 12.397-12.397h.594c.497 0 .902-.404.902-.901s-.405-.902-.902-.902h-.594c-6.836 0-12.397-5.561-12.397-12.397 0-4.614 2.535-8.648 6.284-10.782-3.704-1.688-6.284-5.425-6.284-9.754v-19.863c0-3.313 2.687-6 6-6s6 2.687 6 6v18.577h3.179c5.907 0 10.713 4.806 10.713 10.713s-4.806 10.713-10.713 10.713h-2.782c-.219 0-.397.178-.397.396s.178.397.397.397h.594c7.114 0 12.902 5.788 12.902 12.902s-5.788 12.901-12.902 12.901h-.594c-.219 0-.397.178-.397.397v6.06c0 3.314-2.687 6-6 6z" fill="#fc708a"/></g><ellipse cx="43.2" cy="297.451" fill="#08c165" rx="13.037" ry="22.535" transform="matrix(.933 -.36 .36 .933 -104.107 35.451)"/><ellipse cx="26.198" cy="316.519" fill="#29e088" rx="22.535" ry="13.037" transform="matrix(.125 -.992 .992 .125 -291.109 302.862)"/><ellipse cx="54.971" cy="291.979" fill="#29e088" rx="11.311" ry="19.553" transform="matrix(.79 -.613 .613 .79 -167.435 94.978)"/><ellipse cx="23.476" cy="288.704" fill="#79ff79" rx="22.535" ry="13.037" transform="matrix(.405 -.914 .914 .405 -249.955 193.119)"/><g><path d="m60.182 267.496c0-6.492-4.571-11.91-10.669-13.227-1.317-6.098-6.735-10.669-13.227-10.669s-11.91 4.571-13.227 10.669c-6.098 1.317-10.669 6.735-10.669 13.227s4.571 11.91 10.669 13.227c1.317 6.098 6.735 10.669 13.227 10.669s11.91-4.571 13.227-10.669c6.098-1.317 10.669-6.736 10.669-13.227z" fill="#fe2544"/><circle cx="36.286" cy="267.496" fill="#ffc751" r="10.088"/></g></g><g><g><g><ellipse cx="494.751" cy="182.503" fill="#29e088" rx="9.108" ry="15.744" transform="matrix(.961 -.278 .278 .961 -31.228 144.658)"/><ellipse cx="483.891" cy="179.686" fill="#08c165" rx="19.206" ry="11.111" transform="matrix(.086 -.996 .996 .086 263.119 646.266)"/><ellipse cx="495.662" cy="165.588" fill="#79ff79" rx="13.037" ry="22.535" transform="matrix(.918 -.396 .396 .918 -25.053 209.821)"/></g><g><ellipse cx="444.531" cy="140.081" fill="#29e088" rx="9.108" ry="15.744" transform="matrix(.344 -.939 .939 .344 160.128 509.33)"/><ellipse cx="460.035" cy="134.603" fill="#79ff79" rx="13.037" ry="22.535" transform="matrix(.446 -.895 .895 .446 134.438 486.366)"/><ellipse cx="452.752" cy="149.225" fill="#08c165" rx="19.206" ry="11.111" transform="matrix(.977 -.212 .212 .977 -21.346 99.387)"/></g><g><ellipse cx="461.479" cy="173.872" fill="#08c165" rx="15.744" ry="9.108" transform="matrix(.344 -.939 .939 .344 139.517 547.416)"/><ellipse cx="454.38" cy="164.619" fill="#79ff79" rx="19.206" ry="11.111" transform="matrix(.82 -.573 .573 .82 -12.366 289.953)"/><ellipse cx="476.111" cy="161.104" fill="#29e088" rx="22.535" ry="13.037" transform="matrix(.224 -.975 .975 .224 212.651 589.152)"/></g></g><g><g><ellipse cx="17.249" cy="182.503" fill="#29e088" rx="15.744" ry="9.108" transform="matrix(.278 -.961 .961 .278 -162.861 148.363)"/><ellipse cx="28.109" cy="179.686" fill="#08c165" rx="11.111" ry="19.206" transform="matrix(.996 -.086 .086 .996 -15.401 3.096)"/><ellipse cx="16.338" cy="165.588" fill="#79ff79" rx="22.535" ry="13.037" transform="matrix(.396 -.918 .918 .396 -142.183 115.017)"/></g><g><ellipse cx="67.469" cy="140.081" fill="#29e088" rx="15.744" ry="9.108" transform="matrix(.939 -.344 .344 .939 -44.056 31.744)"/><ellipse cx="51.965" cy="134.603" fill="#79ff79" rx="22.535" ry="13.037" transform="matrix(.895 -.446 .446 .895 -54.564 37.289)"/><ellipse cx="59.248" cy="149.225" fill="#08c165" rx="11.111" ry="19.206" transform="matrix(.212 -.977 .977 .212 -99.146 175.486)"/></g><g><ellipse cx="50.521" cy="173.872" fill="#08c165" rx="9.108" ry="15.744" transform="matrix(.939 -.344 .344 .939 -56.71 27.977)"/><ellipse cx="57.62" cy="164.619" fill="#79ff79" rx="11.111" ry="19.206" transform="matrix(.573 -.82 .82 .573 -110.322 117.555)"/><ellipse cx="35.889" cy="161.104" fill="#29e088" rx="13.037" ry="22.535" transform="matrix(.975 -.224 .224 .975 -35.106 12.1)"/></g></g></g><g><g><path d="m472.75 427.862c-3.313 0-6-2.687-6-6v-6.06c0-6.835 5.562-12.396 12.396-12.396h.594c.497 0 .902-.405.902-.902s-.405-.902-.902-.902h-.594c-6.835 0-12.396-5.561-12.396-12.396 0-4.614 2.534-8.648 6.284-10.782-3.704-1.688-6.284-5.426-6.284-9.754v-19.864c0-3.313 2.687-6 6-6s6 2.687 6 6v18.577h3.179c5.907 0 10.714 4.806 10.714 10.713s-4.807 10.713-10.714 10.713h-2.782c-.219 0-.396.178-.396.397s.178.396.396.396h.594c7.114 0 12.902 5.788 12.902 12.902s-5.788 12.902-12.902 12.902h-.594c-.219 0-.396.178-.396.396v6.06c-.001 3.313-2.688 6-6.001 6z" fill="#fc708a"/></g><ellipse cx="471.453" cy="342.448" fill="#08c165" rx="9.108" ry="15.744"/><ellipse cx="458.642" cy="326.704" fill="#79ff79" rx="19.206" ry="11.111" transform="matrix(.36 -.933 .933 .36 -11.175 637.123)"/><g><path d="m450.209 384.977c-3.313 0-6-2.687-6-6v-6.06c0-.219-.179-.397-.397-.397h-.594c-7.114 0-12.901-5.788-12.901-12.901 0-7.114 5.787-12.902 12.901-12.902h.594c.219 0 .397-.178.397-.397s-.179-.396-.397-.396h-2.782c-5.907 0-10.713-4.806-10.713-10.713s4.806-10.713 10.713-10.713h3.18v-18.578c0-3.313 2.687-6 6-6s6 2.687 6 6v19.863c0 4.329-2.581 8.066-6.284 9.754 3.75 2.134 6.284 6.168 6.284 10.782 0 6.836-5.562 12.397-12.397 12.397h-.594c-.497 0-.901.405-.901.902s.404.901.901.901h.594c6.836 0 12.397 5.561 12.397 12.397v6.06c-.001 3.315-2.688 6.001-6.001 6.001z" fill="#fc708a"/></g><ellipse cx="460.836" cy="296.863" fill="#08c165" rx="22.535" ry="13.037" transform="matrix(.36 -.933 .933 .36 18.074 620.065)"/><ellipse cx="477.838" cy="315.931" fill="#29e088" rx="13.037" ry="22.535" transform="matrix(.992 -.125 .125 .992 -35.811 62.345)"/><ellipse cx="449.066" cy="291.392" fill="#29e088" rx="19.553" ry="11.311" transform="matrix(.613 -.79 .79 .613 -56.427 467.592)"/><ellipse cx="480.561" cy="288.116" fill="#79ff79" rx="13.037" ry="22.535" transform="matrix(.914 -.405 .405 .914 -75.542 219.566)"/><g><path d="m443.854 266.908c0-6.492 4.571-11.91 10.669-13.227 1.317-6.098 6.735-10.669 13.227-10.669s11.91 4.571 13.227 10.669c6.098 1.317 10.669 6.735 10.669 13.227s-4.571 11.91-10.669 13.227c-1.317 6.098-6.735 10.669-13.227 10.669s-11.91-4.571-13.227-10.669c-6.098-1.317-10.669-6.736-10.669-13.227z" fill="#fe2544"/><circle cx="467.75" cy="266.908" fill="#ffc751" r="10.088"/></g></g><g><g><path d="m319.736 13.876c0-3.77-2.655-6.916-6.195-7.681-.765-3.54-3.912-6.195-7.681-6.195-3.77 0-6.916 2.655-7.681 6.195-3.541.765-6.195 3.911-6.195 7.681s2.655 6.916 6.195 7.681c.765 3.541 3.911 6.195 7.681 6.195s6.916-2.655 7.681-6.195c3.54-.765 6.195-3.911 6.195-7.681z" fill="#fe2544"/><ellipse cx="314.45" cy="38.123" fill="#79ff79" rx="30.992" ry="17.929" transform="matrix(.707 -.707 .707 .707 65.143 233.516)"/><ellipse cx="285.279" cy="38.123" fill="#29e088" rx="30.992" ry="17.929" transform="matrix(.36 -.933 .933 .36 147.088 290.592)"/><ellipse cx="197.55" cy="38.123" fill="#79ff79" rx="17.929" ry="30.992" transform="matrix(.707 -.707 .707 .707 30.904 150.855)"/><ellipse cx="226.721" cy="38.123" fill="#29e088" rx="17.929" ry="30.992" transform="matrix(.933 -.36 .36 .933 1.463 84.108)"/><ellipse cx="256" cy="38.123" fill="#79ff79" rx="17.929" ry="30.992"/><path d="m220.016 21.007c0-3.77-2.655-6.916-6.195-7.681-.765-3.541-3.911-6.195-7.681-6.195s-6.916 2.655-7.681 6.195c-3.541.765-6.195 3.911-6.195 7.681s2.655 6.916 6.195 7.681c.765 3.541 3.911 6.195 7.681 6.195s6.916-2.655 7.681-6.195c3.541-.765 6.195-3.911 6.195-7.681z" fill="#fe2544"/></g><g><path d="m301.023 62.019c0-6.492-4.571-11.91-10.669-13.227-1.317-6.098-6.735-10.669-13.227-10.669s-11.91 4.571-13.227 10.669c-6.098 1.317-10.669 6.735-10.669 13.227s4.571 11.91 10.669 13.227c1.317 6.098 6.735 10.669 13.227 10.669s11.91-4.571 13.227-10.669c6.098-1.317 10.669-6.736 10.669-13.227z" fill="#fe2544"/><circle cx="277.128" cy="62.019" fill="#ffc751" r="10.088"/></g></g><g fill="#73e1ff"><path d="m123.566 173.345c14.077-8.294 27.605-18.372 40.457-30.173 5.098-4.681 5.53-12.583 1.035-17.846-.07-.082-.14-.164-.21-.246-4.75-5.56-13.157-6.045-18.54-1.096-10.628 9.773-22.634 19.047-36.04 26.956-5.872 3.464-7.998 10.932-4.871 16.991.04.077.08.154.119.231 3.405 6.596 11.655 8.951 18.05 5.183z"/><circle cx="179.032" cy="108.612" r="13.063"/></g></g></svg>