<svg id="Layer_1" enable-background="new 0 0 512 512" height="512" viewBox="0 0 512 512" width="512" xmlns="http://www.w3.org/2000/svg"><g><g><path d="m132.37 314.98v172.02c0 6.9-2.8 13.16-7.32 17.68-4.53 4.52-10.77 7.32-17.68 7.32-3.56 0-6.94-.74-10-2.08-8.83-3.86-15-12.67-15-22.92v-172.02c0-6.8 5.51-12.32 12.32-12.32l12.675-10 12.685 10c6.8 0 12.32 5.52 12.32 12.32z" fill="#ff485e"/><path d="m132.37 314.98v172.02c0 6.9-2.8 13.16-7.32 17.68-4.53 4.52-10.77 7.32-17.68 7.32-3.56 0-6.94-.74-10-2.08 2.89-1.26 5.48-3.05 7.68-5.24 4.52-4.52 7.32-10.78 7.32-17.68v-172.02c0-6.8-5.52-12.32-12.32-12.32h20c6.8 0 12.32 5.52 12.32 12.32z" fill="#d82356"/></g><g><path d="m297.37 314.98v172.02c0 6.9-2.8 13.16-7.32 17.68-4.53 4.52-10.77 7.32-17.68 7.32-3.56 0-6.94-.74-10-2.08-8.83-3.86-15-12.67-15-22.92v-172.02c0-6.8 5.51-12.32 12.32-12.32l12.675-10 12.685 10c6.8 0 12.32 5.52 12.32 12.32z" fill="#93f9e5"/><path d="m297.37 314.98v172.02c0 6.9-2.8 13.16-7.32 17.68-4.53 4.52-10.77 7.32-17.68 7.32-3.56 0-6.94-.74-10-2.08 2.89-1.26 5.48-3.05 7.68-5.24 4.52-4.52 7.32-10.78 7.32-17.68v-172.02c0-6.8-5.52-12.32-12.32-12.32h20c6.8 0 12.32 5.52 12.32 12.32z" fill="#5ce8f2"/></g><g><path d="m456.666 354.982v132.018c0 6.9-2.8 13.16-7.32 17.68-4.53 4.52-10.77 7.32-17.68 7.32-3.56 0-6.94-.74-10-2.08-8.83-3.86-15-12.67-15-22.92v-132.018c0-6.8 5.51-12.32 12.32-12.32l12.675-10 12.685 10c6.8 0 12.32 5.52 12.32 12.32z" fill="#ffe780"/><path d="m456.666 354.982v132.018c0 6.9-2.8 13.16-7.32 17.68-4.53 4.52-10.77 7.32-17.68 7.32-3.56 0-6.94-.74-10-2.08 2.89-1.26 5.48-3.05 7.68-5.24 4.52-4.52 7.32-10.78 7.32-17.68v-132.018c0-6.8-5.52-12.32-12.32-12.32h20c6.8 0 12.32 5.52 12.32 12.32z" fill="#ffcc83"/></g><path d="m159.4 7.5v154.54c0 13.3-7.11 25.59-18.64 32.22l-16.18 9.29v60.98c4.8 4.55 7.79 10.99 7.79 18.13v7.68c0 6.81-5.52 12.32-12.32 12.32h-25.36c-6.8 0-12.32-5.51-12.32-12.32v-7.68c0-7.16 3.01-13.61 7.83-18.17v-60.94l-16.2-9.3c-11.55-6.62-18.67-18.91-18.67-32.22v-154.53c0-4.14 3.36-7.5 7.5-7.5 4.15 0 7.5 3.36 7.5 7.5v112.62h14.16v-112.62c0-4.14 3.36-7.5 7.5-7.5s7.5 3.36 7.5 7.5v112.62h15.39c-.01-.04-.01-.08-.01-.12v-112.5c0-4.14 3.36-7.5 7.5-7.5 4.15 0 7.5 3.36 7.5 7.5v112.62h14.54c0-.04-.01-.08-.01-.12v-112.5c0-4.14 3.36-7.5 7.5-7.5 4.15 0 7.5 3.36 7.5 7.5z" fill="#dcf1ff"/><path d="m159.4 138.4v23.64c0 13.3-7.11 25.59-18.64 32.22l-16.18 9.29v60.98c4.8 4.55 7.79 10.99 7.79 18.13v7.68c0 6.81-5.52 12.32-12.32 12.32h-25.36c-6.8 0-12.32-5.51-12.32-12.32v-4.68h30c1.657 0 3-1.343 3-3 0-2.99-1.56-4.92-2.5-5.8-3.38-3.21-5.29-7.67-5.29-12.33v-60.98c0-6.09 3.25-11.71 8.53-14.74l16.18-9.3c6.24-3.58 27.11-17.47 27.11-41.11z" fill="#b6e5ff"/><path d="m289.58 194.65v69.88c4.8 4.55 7.79 10.99 7.79 18.13v7.68c0 6.81-5.52 12.32-12.32 12.32h-25.36c-6.8 0-12.32-5.51-12.32-12.32v-7.68c0-7.16 3.01-13.61 7.83-18.17v-69.83c-29.24-6.51-50.83-30.73-50.83-76.42 0-54.26 30.44-118.24 68-118.24 27.31 0 50.85 33.82 61.67 73.14 4.06 14.76 6.33 30.29 6.33 45.1 0 45.67-21.57 69.89-50.79 76.41z" fill="#dcf1ff"/><path d="m456.67 322.66v7.68c0 6.81-5.52 12.32-12.32 12.32h-25.36c-6.81 0-12.32-5.51-12.32-12.32v-7.68c0-7.16 3-13.61 7.82-18.17v-37.11h-19.9c-2.84 0-5.15-2.3-5.15-5.14v-193.2c0-28.74 17.14-54 42.44-65.18 3.35-1.48 6.85-2.72 10.47-3.68 3.29-.87 6.53 1.55 6.53 4.96v299.39c4.79 4.55 7.79 10.99 7.79 18.13z" fill="#dcf1ff"/><g fill="#b6e5ff"><path d="m289.58 194.65v69.88c4.8 4.55 7.79 10.99 7.79 18.13v7.68c0 6.81-5.52 12.32-12.32 12.32h-25.36c-6.8 0-12.32-5.51-12.32-12.32v-4.68h30c1.66 0 3-1.34 3-3 0-1.5-.39-2.72-.9-3.69s-1.13-1.67-1.6-2.11c-3.38-3.21-5.29-7.67-5.29-12.33v-68.98c0-6.09 3.25-11.71 8.53-14.74l16.18-9.3c6.05-3.47 35.03-16.71 36.75-98.37 4.06 14.76 6.33 30.29 6.33 45.1 0 45.67-21.57 69.89-50.79 76.41z"/><path d="m456.67 322.66v7.68c0 6.81-5.52 12.32-12.32 12.32h-25.36c-6.81 0-12.32-5.51-12.32-12.32v-4.68h30c1.66 0 3-1.34 3-3 0-1.5-.39-2.72-.9-3.69s-1.13-1.67-1.6-2.11c-3.38-3.21-5.29-7.67-5.29-12.33v-300.67c3.35-1.48 6.85-2.72 10.47-3.68 3.29-.87 6.53 1.55 6.53 4.96v299.39c4.79 4.55 7.79 10.99 7.79 18.13z"/></g></g></svg>