<svg id="Capa_1" enable-background="new 0 0 512 512" height="512" viewBox="0 0 512 512" width="512" xmlns="http://www.w3.org/2000/svg"><g><path d="m15 512c-3.839 0-7.678-1.464-10.606-4.394-5.858-5.858-5.858-15.355 0-21.213l482-482c5.857-5.858 15.355-5.858 21.213 0s5.858 15.355 0 21.213l-482 482c-2.929 2.93-6.768 4.394-10.607 4.394z" fill="#fed843"/><path d="m15 512c3.839 0 7.678-1.464 10.606-4.394l482-482c5.858-5.858 5.858-15.355 0-21.213l-503.212 503.214c2.928 2.929 6.767 4.393 10.606 4.393z" fill="#fabe2c"/><path d="m77.826 346.816c-5.857-5.858-15.355-5.858-21.213 0l-52.22 52.22c-5.858 5.858-5.858 15.355 0 21.213l87.358 87.358c2.929 2.929 6.768 4.394 10.606 4.394s7.678-1.464 10.606-4.394l52.22-52.22c5.858-5.858 5.858-15.355 0-21.213z" fill="#384949"/><path d="m48.074 463.929 43.677 43.677c2.929 2.929 6.768 4.394 10.606 4.394s7.678-1.464 10.606-4.394l52.22-52.22c5.858-5.858 5.858-15.355 0-21.213l-43.675-43.675z" fill="#293939"/><path d="m250.9 450.31-34.79 34.79c-5.85 5.85-13.53 8.77-21.21 8.77s-15.37-2.92-21.21-8.77l-146.79-146.79c-11.7-11.69-11.7-30.73 0-42.42l34.79-34.79c11.69-11.69 30.73-11.7 42.42 0l146.79 146.79c11.7 11.69 11.7 30.73 0 42.42z" fill="#4a696f"/><path d="m250.9 407.89c11.7 11.69 11.7 30.73 0 42.42l-34.79 34.79c-5.85 5.85-13.53 8.77-21.21 8.77s-15.37-2.92-21.21-8.77l-73.39-73.39 77.21-77.21z" fill="#384949"/><path d="m507.607 91.752-87.358-87.358c-5.857-5.858-15.355-5.858-21.213 0l-52.22 52.22c-5.858 5.858-5.858 15.355 0 21.213l87.358 87.358c2.929 2.929 6.768 4.394 10.606 4.394s7.678-1.464 10.606-4.394l52.22-52.22c5.858-5.858 5.858-15.355.001-21.213z" fill="#384949"/><path d="m463.929 48.074-73.43 73.435 43.675 43.675c2.929 2.929 6.768 4.394 10.606 4.394s7.678-1.464 10.606-4.394l52.22-52.22c5.858-5.858 5.858-15.355 0-21.213z" fill="#293939"/><path d="m485.1 216.11-34.79 34.79c-5.84 5.85-13.53 8.77-21.21 8.77s-15.36-2.92-21.21-8.77l-73.39-73.39-73.4-73.4c-11.7-11.69-11.7-30.73 0-42.42l34.79-34.79c11.69-11.7 30.73-11.7 42.42 0l73.4 73.4 73.39 73.39c11.7 11.69 11.7 30.73 0 42.42z" fill="#4a696f"/><path d="m485.1 216.11-34.79 34.79c-5.84 5.85-13.53 8.77-21.21 8.77s-15.36-2.92-21.21-8.77l-73.39-73.39 77.21-77.21 73.39 73.39c11.7 11.69 11.7 30.73 0 42.42z" fill="#384949"/></g></svg>