<svg id="Capa_1" enable-background="new 0 0 497 497" height="512" viewBox="0 0 497 497" width="512" xmlns="http://www.w3.org/2000/svg"><g><path d="m223.65 397.833h49.7v82.367h-49.7z" fill="#abc4d6"/><g><path d="m149.1 248.5c0 54.897 44.503 99.4 99.4 99.4s99.4-44.503 99.4-99.4v-18.5h-198.8z" fill="#abc4d6"/><path d="m324.9 230v18.5c0 51.007-38.421 93.033-87.9 98.734 3.774.435 7.61.666 11.5.666 54.897 0 99.4-44.503 99.4-99.4v-18.5z" fill="#a3b9cc"/><path d="m149.1 178.95v-79.55c0-54.897 44.503-99.4 99.4-99.4s99.4 44.503 99.4 99.4v79.551z" fill="#868eaf"/><g><g><path d="m240.217 106.9h-16.567c-4.142 0-7.5-3.358-7.5-7.5s3.358-7.5 7.5-7.5h16.567c4.142 0 7.5 3.358 7.5 7.5s-3.358 7.5-7.5 7.5z" fill="#7d83ad"/></g></g><g><g><path d="m215.367 73.767h-16.567c-4.142 0-7.5-3.358-7.5-7.5s3.358-7.5 7.5-7.5h16.567c4.142 0 7.5 3.358 7.5 7.5s-3.358 7.5-7.5 7.5z" fill="#7d83ad"/></g></g><g><g><path d="m265.067 73.767h-16.567c-4.142 0-7.5-3.358-7.5-7.5s3.358-7.5 7.5-7.5h16.567c4.142 0 7.5 3.358 7.5 7.5s-3.358 7.5-7.5 7.5z" fill="#7d83ad"/></g></g><path d="m414.167 248.5c0 91.349-74.318 165.667-165.667 165.667s-165.667-74.318-165.667-165.667v-13.283h33.133v13.283c0 73.079 59.454 132.533 132.533 132.533s132.534-59.454 132.534-132.533v-13.283h33.133v13.283z" fill="#bdd3dd"/><g><path d="m391.45 235.217v13.283c0 87.531-68.238 159.413-154.308 165.27 3.755.255 7.54.397 11.358.397 91.349 0 165.667-74.317 165.667-165.667v-13.283z" fill="#abc4d6"/></g><path d="m414.45 240.217c4.418 0 8-3.582 8-8v-33.699c0-4.418-3.582-8-8-8h-331.9c-4.418 0-8 3.582-8 8v33.699c0 4.418 3.582 8 8 8z" fill="#a0c8ff"/><path d="m248.5 0c-3.89 0-7.726.231-11.5.666 49.479 5.701 87.9 47.727 87.9 98.734v79.551h23v-79.551c0-54.897-44.503-99.4-99.4-99.4z" fill="#7d83ad"/><path d="m356.467 248.5h-215.934c-4.418 0-8-3.582-8-8v-58.549c0-4.418 3.582-8 8-8h215.933c4.418 0 8 3.582 8 8v58.549c.001 4.418-3.581 8-7.999 8z" fill="#bdd3dd"/><path d="m356.467 173.951h-23c4.418 0 8 3.582 8 8v58.549c0 4.418-3.582 8-8 8h23c4.418 0 8-3.582 8-8v-58.549c0-4.418-3.582-8-8-8z" fill="#abc4d6"/><path d="m414.45 190.517h-23c4.418 0 8 3.582 8 8v33.699c0 4.418-3.582 8-8 8h23c4.418 0 8-3.582 8-8v-33.699c0-4.418-3.582-8-8-8z" fill="#91b2fa"/></g><path d="m373.033 497h-249.066c-4.418 0-8-3.582-8-8v-17.133c0-4.418 3.582-8 8-8h249.067c4.418 0 8 3.582 8 8v17.133c-.001 4.418-3.582 8-8.001 8z" fill="#868eaf"/><path d="m373.033 463.867h-23c4.418 0 8 3.582 8 8v17.133c0 4.418-3.582 8-8 8h23c4.418 0 8-3.582 8-8v-17.133c0-4.419-3.581-8-8-8z" fill="#7d83ad"/></g></svg>