<?xml version="1.0" encoding="iso-8859-1"?>
<!-- Generator: Adobe Illustrator 19.0.0, SVG Export Plug-In . SVG Version: 6.00 Build 0)  -->
<svg version="1.1" id="Capa_1" xmlns="http://www.w3.org/2000/svg" xmlns:xlink="http://www.w3.org/1999/xlink" x="0px" y="0px"
	 viewBox="0 0 512 512" style="enable-background:new 0 0 512 512;" xml:space="preserve">
<g>
	<g>
		<path d="M256,0C115.03,0,0,115.05,0,256c0,142.255,116.376,256,256,256c67.985,0,132.324-26.698,180.812-75.188
			C485.298,388.327,512,324.113,512,256C512,115.03,396.95,0,256,0z M391,437.141c-9.456,7.065-19.488,13.396-30,18.935V407
			c0-8.284-6.716-15-15-15s-15,6.716-15,15v62.191C307.519,477.476,282.28,482,256,482c-26.28,0-51.519-4.524-75-12.809V407
			c0-8.284-6.716-15-15-15s-15,6.716-15,15v49.076c-10.512-5.539-20.544-11.87-30-18.935V407c0-41.907,33.645-76,75-76
			c2.699,0,116.757,0,120,0c41.355,0,75,34.093,75,76V437.141z M181,226c0-41.355,33.645-75,75-75
			c40.522,0,73.642,32.304,74.959,72.511c-1.28,40.924-32.594,75.376-70.904,77.382C216.784,303.156,181,268.881,181,226z
			 M421,410.262c0-61.902-44.063-103.28-93.742-108.651c1.956-1.917,3.855-3.919,5.688-6.008
			C350.499,275.597,361,249.268,361,220.907c0-1.051-0.108-2.077-0.314-3.067C356.508,163.741,311.151,121,256,121
			c-57.897,0-105,47.103-105,105c0,28.899,11.477,55.784,32.323,75.775C134.415,307.744,91,348.728,91,410.262
			C53.188,369.844,30,315.583,30,256C30,131.383,131.383,30,256,30s226,101.383,226,226C482,315.583,458.812,369.844,421,410.262z"
			/>
	</g>
</g>
<g>
</g>
<g>
</g>
<g>
</g>
<g>
</g>
<g>
</g>
<g>
</g>
<g>
</g>
<g>
</g>
<g>
</g>
<g>
</g>
<g>
</g>
<g>
</g>
<g>
</g>
<g>
</g>
<g>
</g>
</svg>
