<svg id="Layer_1_1_" enable-background="new 0 0 64 64" height="512" viewBox="0 0 64 64" width="512" xmlns="http://www.w3.org/2000/svg"><g><path d="m57.434 18.368c-1.061-5.548-4.52-10.343-9.723-12.677-9.077-4.073-22.335-4.078-31.423 0-4.208 1.888-7.424 5.407-9.035 9.717-1.122 3.006-1.15 7.792-.814 12.029l.401 3.617c.517 4.024 1.186 7.082 1.186 7.082l3.314-1.885s-.41-2.014-.754-4.751l-.44-5.273c-.088-2.643.069-5.264.752-7.094 1.373-3.674 4.114-6.673 7.701-8.283 7.746-3.476 19.047-3.472 26.784 0 4.434 1.99 7.383 6.077 8.287 10.805.236 1.236.274 2.854.202 4.563l-.481 5.314c-.344 2.676-.734 4.73-.734 4.73l3.304 1.812s.607-3.019 1.114-6.869l.422-3.768c.298-3.292.395-6.678-.063-9.069z" fill="#707070"/></g><g><path d="m28 18v4l11-3v-4z" fill="#b72727"/></g><g><path d="m7.262 38.781c-.753.691-1.05 1.752-.845 2.754.71 3.462 2.435 11.87 3.203 15.614.242 1.179 1.163 2.089 2.342 2.334.987.206 2.089.388 3.186.525l-5.018-23.19c-1.048.52-2.014 1.179-2.868 1.963z" fill="#b72727"/></g><g><path d="m11.049 36.402c-.313.125-.618.267-.918.416l5.018 23.19c1.522.189 3.02.28 4.197.209l-5.874-24.798c-.868.338-1.694.692-2.423.983z" fill="#707070"/></g><g><path d="m25.85 50.268c-.289-2.888-.866-5.74-1.722-8.514l-1.273-4.128c-1.461-4.736-5.796-3.606-9.383-2.208l5.874 24.798c.123-.007.256-.01.372-.021.513-.05 1.036-.125 1.552-.232 2.777-.576 5.345-2.068 5.012-5.396z" fill="#e0e0e0"/></g><g><path d="m40.555 38.11-1.004 4.202c-.674 2.823-1.066 5.707-1.168 8.607l-.152 4.318c-.118 3.343 2.542 4.665 5.35 5.06.522.073 1.048.115 1.563.131.1.003.215.001.32.003l4.31-25.131c-3.669-1.163-8.068-2.011-9.219 2.81z" fill="#e0e0e0"/></g><g><path d="m6 29c0 .809.323 1.539.843 2.079-.001-.008-.002-.017-.003-.025.001.009.002.017.003.025.546.566 1.309.921 2.157.921.586 0 1.128-.175 1.59-.465-.002-.012-.003-.023-.005-.036.002.012.003.023.005.036.844-.531 1.41-1.464 1.41-2.535 0-1.657-1.343-3-3-3s-3 1.343-3 3z" fill="#b72727"/></g><g><path d="m57.498 27.437c.003-.028.004-.055.007-.083-.537-.815-1.457-1.354-2.505-1.354-1.657 0-3 1.343-3 3s1.343 3 3 3 3-1.343 3-3c0-.609-.184-1.173-.495-1.646-.003.028-.005.055-.007.083z" fill="#b72727"/></g><g><circle cx="26" cy="29" fill="#b72727" r="2"/></g><g><circle cx="37" cy="26" fill="#b72727" r="2"/></g><g><g><path d="m52.257 36.125c-.747-.243-1.594-.543-2.482-.824l-4.31 25.131c1.179.016 2.68-.083 4.195-.27l3.538-23.671c-.309-.131-.619-.262-.941-.366z" fill="#707070"/></g><g><path d="m56.915 38.886c-1.077-1.014-2.339-1.819-3.717-2.396l-3.538 23.671c1.146-.142 2.3-.332 3.329-.57 1.2-.277 2.114-1.244 2.306-2.46l2.475-15.634c.152-.957-.15-1.947-.855-2.611z" fill="#b72727"/></g></g><g><path d="m7.254 18.273c1.611-4.31 4.827-7.829 9.035-9.717 9.088-4.078 22.346-4.073 31.423 0 5.203 2.334 8.662 7.129 9.723 12.677.156.816.243 1.753.285 2.757.074-2.094.012-4.069-.285-5.622-1.061-5.548-4.52-10.343-9.723-12.677-9.077-4.073-22.335-4.078-31.423 0-4.208 1.888-7.424 5.407-9.035 9.717-.87 2.328-1.079 5.723-.974 9.105.074-2.36.352-4.576.974-6.24z" fill="#8a8a8a"/></g><g><path d="m59 29c0-.672-.182-1.295-.475-1.851.328-3.845.294-6.866-.108-8.968-1.15-6.015-4.999-11.024-10.296-13.401-9.341-4.192-22.901-4.192-32.242 0-4.432 1.987-7.828 5.639-9.562 10.279-1.242 3.322-1.179 8.403-.894 12.186-.262.532-.423 1.122-.423 1.755 0 .943.341 1.799.889 2.483.381 2.895.826 5.232 1.037 6.276-.112.096-.231.184-.34.285-.989.907-1.429 2.321-1.147 3.691l3.202 15.615c.321 1.563 1.545 2.785 3.118 3.111 1.881.393 4.579.786 6.756.786.461 0 .898-.018 1.3-.057.578-.056 1.136-.14 1.658-.248 4.076-.846 6.137-3.146 5.804-6.475l-.431-4.299c-.295-2.948-.888-5.878-1.761-8.709l-1.273-4.129c-.544-1.765-1.506-2.982-2.858-3.619-2.643-1.245-6.147.07-8.847 1.177-.126-.723-.29-1.736-.449-2.921.816-.732 1.342-1.784 1.342-2.967 0-1.42-.748-2.661-1.866-3.371-.052-2.684.181-4.756.701-6.147 1.303-3.487 3.851-6.229 7.173-7.72 7.523-3.376 18.443-3.376 25.965 0 4.023 1.806 6.835 5.48 7.714 10.081.179.933.241 2.212.199 3.774-1.128.708-1.886 1.955-1.886 3.383 0 1.175.518 2.222 1.327 2.954-.163 1.207-.328 2.25-.452 2.988-.095-.032-.181-.06-.278-.093-2.821-.956-6.685-2.265-9.396-.769-1.309.723-2.189 2.001-2.619 3.797l-1.003 4.201c-.688 2.881-1.09 5.844-1.195 8.806l-.151 4.317c-.118 3.344 2.088 5.506 6.21 6.086.529.074 1.09.121 1.67.14.196.007.399.01.609.01 2.217 0 5.196-.342 7.492-.872 1.608-.372 2.813-1.659 3.069-3.278l2.475-15.634c.207-1.311-.226-2.617-1.157-3.494-.174-.164-.366-.308-.549-.462.194-1.034.612-3.363.982-6.121.594-.698.966-1.59.966-2.576zm-6 0c0-1.103.897-2 2-2s2 .897 2 2-.897 2-2 2-2-.897-2-2zm-42 0c0 1.103-.897 2-2 2s-2-.897-2-2 .897-2 2-2 2 .897 2 2zm-.4 27.947-3.203-15.614c-.141-.685.066-1.381.541-1.815.47-.431.974-.813 1.503-1.157l4.425 20.453c-.595-.096-1.173-.2-1.701-.311-.79-.164-1.405-.774-1.565-1.556zm9.5-21.426c.834.393 1.422 1.178 1.799 2.399l1.273 4.129c.834 2.703 1.4 5.502 1.682 8.318l.431 4.299c.224 2.237-1.195 3.689-4.221 4.317-.297.062-.627.099-.949.142l-5.467-23.08c1.299-.466 2.656-.842 3.838-.842.592.001 1.139.095 1.614.318zm-7.333 1.259 5.32 22.459c-.663-.016-1.379-.066-2.112-.143l-4.696-21.701c.047-.02.092-.044.14-.063.308-.123.633-.257.971-.396.121-.052.251-.104.377-.156zm-2.553-1.097c-.518.229-1.021.486-1.503.777-.168-.885-.387-2.121-.605-3.57.289.067.586.11.894.11.263 0 .52-.029.769-.078.169 1.179.332 2.142.445 2.761zm44.439-14.214c-.989-5.174-4.301-9.484-8.86-11.53-7.998-3.59-19.606-3.589-27.603 0-3.814 1.711-6.737 4.853-8.228 8.844-.562 1.504-.842 3.597-.837 6.23-.043-.002-.082-.013-.125-.013-.605 0-1.173.145-1.688.387-.197-4.184.106-7.56.878-9.628 1.546-4.137 4.567-7.388 8.507-9.155 8.866-3.979 21.737-3.979 30.604 0 4.772 2.142 8.107 6.498 9.15 11.952.312 1.631.375 3.923.198 6.81-.503-.23-1.059-.366-1.649-.366-.034 0-.065.009-.099.01.011-1.417-.07-2.61-.248-3.541zm-2.705 15.607c.049.016.096.039.144.056l-3.307 22.123c-.737.077-1.456.129-2.13.156l3.91-22.8c.13.044.263.089.389.131.346.118.679.232.994.334zm-12.717 18.196.151-4.317c.1-2.829.483-5.659 1.141-8.411l1.003-4.201c.297-1.244.834-2.065 1.641-2.511.56-.31 1.241-.434 1.985-.434 1.086 0 2.306.266 3.486.605l-4.008 23.381c-.307-.022-.623-.036-.909-.076-3.058-.431-4.569-1.788-4.49-4.036zm17.552-13.931-2.475 15.634c-.128.811-.734 1.455-1.544 1.642-.594.137-1.244.261-1.917.369l3.139-21.001c.81.454 1.57.996 2.243 1.63.451.424.658 1.069.554 1.726zm-2.999-5.694c.108-.625.265-1.581.428-2.726.255.05.518.079.788.079.284 0 .559-.032.826-.088-.208 1.398-.412 2.608-.568 3.484-.475-.282-.969-.528-1.474-.749z"/></g><g><path d="m40 26v-11c0-.312-.146-.605-.393-.795s-.568-.25-.87-.17l-11 3c-.435.119-.737.514-.737.965v8.184c-.314-.112-.648-.184-1-.184-1.654 0-3 1.346-3 3s1.346 3 3 3 3-1.346 3-3v-6.236l9-2.455v2.875c-.314-.112-.648-.184-1-.184-1.654 0-3 1.346-3 3s1.346 3 3 3 3-1.346 3-3zm-14 4c-.551 0-1-.448-1-1s.449-1 1-1 1 .448 1 1-.449 1-1 1zm3-9.309v-1.927l9-2.454v1.927zm8 6.309c-.551 0-1-.448-1-1s.449-1 1-1 1 .448 1 1-.449 1-1 1z"/></g><g><path d="m31 34h2v2h-2z"/></g><g><path d="m31 39h2v2h-2z"/></g><g><path d="m31 44h2v2h-2z"/></g></svg>