<?xml version="1.0" encoding="iso-8859-1"?>
<!-- Generator: Adobe Illustrator 19.0.0, SVG Export Plug-In . SVG Version: 6.00 Build 0)  -->
<svg version="1.1" id="Capa_1" xmlns="http://www.w3.org/2000/svg" xmlns:xlink="http://www.w3.org/1999/xlink" x="0px" y="0px"
	 viewBox="0 0 512 512" style="enable-background:new 0 0 512 512;" xml:space="preserve">
<path style="fill:#E53935;" d="M80,80h352c44.183,0,80,35.817,80,80v192c0,44.183-35.817,80-80,80H80c-44.183,0-80-35.817-80-80V160
	C0,115.817,35.817,80,80,80z"/>
<path d="M432,448H80c-44.183,0-80-35.817-80-80V144c0-44.183,35.817-80,80-80h352c44.183,0,80,35.817,80,80v224
	C512,412.183,476.183,448,432,448z M80,96c-26.51,0-48,21.49-48,48v224c0,26.51,21.49,48,48,48h352c26.51,0,48-21.49,48-48V144
	c0-26.51-21.49-48-48-48H80z"/>
<g>
	<path style="fill:#FAFAFA;" d="M368,320h-32c-26.51,0-48-21.49-48-48v-64c0-26.51,21.49-48,48-48h32c8.837,0,16,7.163,16,16
		s-7.163,16-16,16h-32c-8.837,0-16,7.163-16,16v64c0,8.837,7.163,16,16,16h32c8.837,0,16,7.163,16,16S376.837,320,368,320z"/>
	<path style="fill:#FAFAFA;" d="M208,320h-32c-26.51,0-48-21.49-48-48v-64c0-26.51,21.49-48,48-48h32c8.837,0,16,7.163,16,16
		s-7.163,16-16,16h-32c-8.837,0-16,7.163-16,16v64c0,8.837,7.163,16,16,16h32c8.837,0,16,7.163,16,16S216.837,320,208,320z"/>
</g>
<g>
</g>
<g>
</g>
<g>
</g>
<g>
</g>
<g>
</g>
<g>
</g>
<g>
</g>
<g>
</g>
<g>
</g>
<g>
</g>
<g>
</g>
<g>
</g>
<g>
</g>
<g>
</g>
<g>
</g>
</svg>
