<svg id="Layer_1" enable-background="new 0 0 512 512" height="512" viewBox="0 0 512 512" width="512" xmlns="http://www.w3.org/2000/svg"><path d="m270.009 190.243c-4.405 0-8.009-3.614-8.009-8.03v-66.213h-244.5c-5.5 0-10 4.5-10 10v222h331.808c12.302-32.073 43.366-54.851 79.767-54.851 3.532 0 7.005.239 10.425.656v-103.562z" fill="#c7eefd"/><path d="m48 126c0-5.5 4.5-10 10-10h-40.5c-5.5 0-10 4.5-10 10v222h40.5z" fill="#98e5fb"/><path d="m333.65 378.575c0-10.777 2.016-21.079 5.658-30.575h-331.808v59.678c0 5.5 4.5 10 10 10h325.633c-6.047-11.72-9.483-25.006-9.483-39.103z" fill="#8c9ba7"/><path d="m48 407.678v-59.678h-40.5v59.678c0 5.5 4.5 10 10 10h40.5c-5.5 0-10-4.5-10-10z" fill="#798b97"/><path d="m167.242 183c0-2.75 1.936-3.854 4.302-2.453l93.911 55.602c2.366 1.401 2.366 3.694 0 5.095l-93.91 55.599c-2.367 1.401-4.303.297-4.303-2.453z" fill="#fd646f"/><path d="m167.242 183c0-2.75 1.936-3.854 4.302-2.453l93.911 55.602c2.366 1.401 2.366 3.694 0 5.095l-93.91 55.599c-2.367 1.401-4.303.297-4.303-2.453z" fill="#fd646f"/><path d="m199 196.803-27.456-16.255c-2.366-1.401-4.302-.297-4.302 2.453v111.391c0 2.75 1.936 3.854 4.303 2.453l27.455-16.256z" fill="#fc4755"/><circle cx="419.075" cy="378.575" fill="#f9c500" r="85.425"/><path d="m365.326 386.012c-.304.037-.61.063-.924.063-4.143 0-7.5-3.358-7.5-7.5s3.357-7.5 7.5-7.5c.313 0 .62.025.924.063 3.318-38.453 32.114-69.604 69.424-76.527-5.084-.943-10.317-1.46-15.675-1.46-47.179 0-85.425 38.246-85.425 85.425s38.247 85.424 85.425 85.424c5.357 0 10.591-.517 15.675-1.46-37.31-6.923-66.105-38.075-69.424-76.528z" fill="#e7b700"/><path d="m454.41 48h-184.401c-4.405 0-8.009 3.613-8.009 8.028v126.185c0 4.416 3.604 8.03 8.009 8.03h184.401c4.405 0 8.009-3.614 8.009-8.03v-126.185c0-4.415-3.604-8.028-8.009-8.028z" fill="#62dafa"/><path d="m293.581 56.028c0-4.416 3.604-8.028 8.009-8.028h-31.581c-4.405 0-8.009 3.613-8.009 8.028v103.33l31.581-41.192z" fill="#01cffa"/><path d="m426.78 120.648c-1.342-1.751-3.539-1.751-4.881 0l-42.443 55.361 10.913 14.234h64.042c4.405 0 8.009-3.614 8.009-8.03v-15.078z" fill="#00c184"/><path d="m426.78 120.648c-1.342-1.751-3.539-1.751-4.881 0l-42.443 55.361 10.913 14.234h9.631l40.068-52.262z" fill="#07b17b"/><path d="m316.784 94.265c-1.342-1.752-3.539-1.752-4.88 0l-49.904 65.093v22.855c0 4.416 3.604 8.03 8.009 8.03h120.359z" fill="#00c184"/><path d="m293.632 182.213v-22.855l36.528-47.646-13.376-17.447c-1.342-1.752-3.539-1.752-4.88 0l-49.904 65.093v22.855c0 4.416 3.604 8.03 8.009 8.03h31.632c-4.405 0-8.009-3.614-8.009-8.03z" fill="#07b17b"/><ellipse cx="380.632" cy="91.482" fill="#fde35a" rx="20.424" ry="20.475"/><path d="m98 123.5h156.5v58.713c0 8.563 6.957 15.53 15.509 15.53h151.991v34.257c0 4.142 3.358 7.5 7.5 7.5s7.5-3.358 7.5-7.5v-34.257h17.41c8.552 0 15.509-6.967 15.509-15.53v-126.185c0-8.563-6.958-15.528-15.509-15.528h-115.41c-4.142 0-7.5 3.358-7.5 7.5s3.358 7.5 7.5 7.5h115.41c.262 0 .509.257.509.528v88.998l-22.188-28.94c-2.07-2.701-5.129-4.25-8.393-4.25-3.263 0-6.322 1.549-8.393 4.25l-36.491 47.597-56.716-73.977c-2.071-2.704-5.13-4.255-8.395-4.255s-6.325 1.551-8.393 4.251l-36.45 47.547v-81.22c0-.271.248-.528.509-.528h33.991c4.142 0 7.5-3.358 7.5-7.5s-3.358-7.5-7.5-7.5h-33.991c-8.552 0-15.509 6.966-15.509 15.528v52.471h-156.5c-4.142 0-7.5 3.358-7.5 7.5s3.358 7.5 7.5 7.5zm326.339 6.292 30.58 39.887v12.534c0 .272-.247.53-.509.53h-60.341l-5.162-6.734zm-154.839 32.11 44.844-58.493 60.823 79.334h-105.158c-.262 0-.509-.257-.509-.53z"/><path d="m175.365 174.094c-1.828-1.083-3.82-1.654-5.761-1.654-5.622 0-9.862 4.54-9.862 10.561v111.391c0 6.021 4.24 10.561 9.862 10.561 1.941 0 3.933-.572 5.762-1.654l93.91-55.599c3.415-2.021 5.455-5.387 5.455-9.001s-2.039-6.979-5.454-9.001zm-.623 112.14v-95.078l80.294 47.54z"/><circle cx="34.221" cy="382" r="7.5"/><circle cx="65.221" cy="382" r="7.5"/><circle cx="96.221" cy="382" r="7.5"/><path d="m437 287.391v-19.391c0-4.142-3.358-7.5-7.5-7.5s-7.5 3.358-7.5 7.5v17.7c-.972-.03-1.946-.051-2.925-.051-37.68 0-70.192 22.543-84.761 54.851h-319.314v-214.5c0-1.355 1.145-2.5 2.5-2.5h44.5c4.142 0 7.5-3.358 7.5-7.5s-3.358-7.5-7.5-7.5h-44.5c-9.649 0-17.5 7.851-17.5 17.5v281.678c0 9.649 7.851 17.5 17.5 17.5h321.208c16.111 27.676 46.101 46.322 80.367 46.322 51.239 0 92.925-41.686 92.925-92.925 0-45.109-32.31-82.807-75-91.184zm-419.5 122.787c-1.355 0-2.5-1.145-2.5-2.5v-52.178h314.051c-1.528 5.959-2.478 12.147-2.788 18.5h-193.042c-4.142 0-7.5 3.358-7.5 7.5s3.358 7.5 7.5 7.5h193.518c.824 7.35 2.506 14.444 4.949 21.178zm401.575 46.322c-42.968 0-77.925-34.957-77.925-77.925s34.957-77.925 77.925-77.925 77.925 34.956 77.925 77.925-34.957 77.925-77.925 77.925z"/><path d="m427.298 370.527h-16.445c-.365 0-8.943-.095-8.943-8.396 0-2.212 0-8.944 8.943-8.944h27.785c4.142 0 7.5-3.358 7.5-7.5s-3.358-7.5-7.5-7.5h-12.063v-5.107c0-4.142-3.358-7.5-7.5-7.5s-7.5 3.358-7.5 7.5v5.107h-.723c-14.321 0-23.943 9.623-23.943 23.944 0 15.196 12.336 23.396 23.943 23.396h16.445c2.098 0 8.943.605 8.943 8.396 0 5.369-1.521 8.944-8.943 8.944h-28.637c-4.142 0-7.5 3.358-7.5 7.5s3.358 7.5 7.5 7.5h12.914v6.204c0 4.142 3.358 7.5 7.5 7.5s7.5-3.358 7.5-7.5v-6.204h.723c14.768 0 23.943-9.175 23.943-23.944.001-15.36-12.044-23.396-23.942-23.396z"/><circle cx="364.402" cy="378.575" r="7.5"/><circle cx="474.402" cy="378.575" r="7.5"/><path d="m408.556 91.482c0-15.425-12.527-27.974-27.924-27.974s-27.924 12.549-27.924 27.974 12.526 27.975 27.924 27.975c15.397 0 27.924-12.55 27.924-27.975zm-40.848 0c0-7.154 5.797-12.974 12.924-12.974s12.924 5.82 12.924 12.974-5.798 12.975-12.924 12.975c-7.127 0-12.924-5.821-12.924-12.975z"/></svg>