<svg id="Capa_1" enable-background="new 0 0 512 512" height="512" viewBox="0 0 512 512" width="512" xmlns="http://www.w3.org/2000/svg"><g><path d="m119.763 414.142-55.742-55.742c-35.193-35.193-56.521-83.834-56.521-136.454v-50.586c0-37.819 30.768-68.586 68.587-68.586 27.533 0 51.328 16.307 62.236 39.77l65.143-65.143c25.81-25.812 68.643-26.31 94.287 1.308 45.529-16.239 92.196 20.994 86.579 69.027 24.699 17.874 32.761 49.58 22.118 76.642 26.687 25.33 27.105 67.429 1.251 93.284l-96.48 96.48c-52.907 52.906-138.544 52.914-191.458 0z" fill="#f6ee86"/><path d="m215.492 453.794c28.27 0 55.216-8.607 77.849-24.58-127.24-44.986-148.042-238.605-129.767-311.92l-25.251 25.25c-10.907-23.463-34.702-39.77-62.236-39.77-37.819 0-68.587 30.767-68.587 68.586v50.586c0 25.47 4.943 50.317 14.69 73.849 9.747 23.531 23.821 44.595 41.831 62.606l55.742 55.742c25.57 25.569 59.567 39.651 95.729 39.651z" fill="#efd176"/><path d="m383.363 249.933c-11.983-11.983-31.411-11.983-43.393 0l27.336-27.337c11.843-11.843 12.588-31.158 1.054-43.302-11.929-12.56-31.786-12.753-43.959-.58l16.973-16.973c11.983-11.983 11.983-31.411 0-43.393-11.983-11.983-31.411-11.983-43.393 0l-26.296 26.296c12.173-12.173 11.98-32.03-.58-43.959-12.144-11.534-31.459-10.789-43.302 1.054l-104.358 104.357c-4.867 4.867-13.189 1.42-13.189-5.463v-29.272c0-18.871-15.298-34.169-34.169-34.169-18.871 0-34.169 15.298-34.169 34.169v50.585c0 42.052 16.705 82.382 46.441 112.118l55.741 55.741c39.429 39.428 103.355 39.429 142.783 0l96.48-96.48c11.983-11.982 11.983-31.41 0-43.392z" fill="#cb9d82"/><g><g fill="#fff"><ellipse cx="137.654" cy="252.285" rx="23.515" ry="29.529" transform="matrix(.709 -.706 .706 .709 -137.896 170.624)"/><ellipse cx="250.583" cy="365.709" rx="23.515" ry="29.529" transform="matrix(.709 -.706 .706 .709 -185.022 283.348)"/></g></g><path d="m448.835 161.238c.244-.001 24.516-.109 31.164-.109 17.645 0 32.001-14.355 32.001-32 0-11.442-6.041-21.496-15.097-27.154 4.287-4.979 6.887-11.449 6.887-18.519 0-15.676-12.753-28.429-28.429-28.429h-26.558c-4.082 0-7.39 3.309-7.39 7.39v91.43c0 4.014 3.232 7.391 7.422 7.391zm7.358-91.43h19.168c7.526 0 13.649 6.122 13.649 13.648 0 7.525-6.123 13.648-13.649 13.648-1.612 0 6.374-.012-19.168.025zm0 42.137c17.324-.071 9.002-.019 23.806-.037 9.496 0 17.221 7.725 17.221 17.22s-7.725 17.22-17.221 17.22c-4.321 0-16.018.045-23.806.077zm-174.735 316.069c-50.385 30.409-114.694 22.522-156.392-19.175l-55.742-55.741c-35.031-35.033-54.324-81.61-54.324-131.151v-50.585c0-33.683 27.403-61.086 61.087-61.086 23.67 0 45.43 13.908 55.436 35.432 2.193 4.717 8.419 5.824 12.104 2.142l47.511-47.511c2.929-2.929 2.929-7.678 0-10.606-2.931-2.93-7.679-2.929-10.607 0l-40.473 40.474c-13.895-21.507-38.008-34.932-63.971-34.932-41.954 0-76.087 34.132-76.087 76.086v50.585c0 26.848 5.266 52.979 15.649 77.669 10.125 24.072 24.614 45.634 43.067 64.088l55.742 55.741c46.754 46.754 118.643 55.275 174.749 21.41 3.547-2.14 4.686-6.75 2.546-10.296-2.138-3.545-6.748-4.684-10.295-2.544zm-99.709-195.347c-8.392-8.43-22.03-8.495-30.494-.067-2.936 2.922-2.945 7.671-.022 10.606 2.921 2.935 7.67 2.945 10.606.022 2.739-2.727 6.876-2.393 9.28.021 2.564 2.576 2.545 6.726-.02 9.28-2.935 2.922-2.945 7.671-.023 10.606 2.921 2.934 7.671 2.948 10.606.023 8.445-8.404 8.477-22.045.067-30.491zm164.929-119.623c-7.212-7.212-16.801-11.184-27-11.184-19.889 0-29.188 14.059-31.837 16.02-1.135-8.625-5.151-16.536-11.571-22.634-14.87-14.123-38.99-13.59-53.771 1.189-.901.901 11.268-11.267-104.448 104.438-.079.012-.244-.059-.282-.108-.04-.1-.004-.315-.013-29.404 0-22.977-18.692-41.669-41.669-41.669-22.976 0-41.669 18.692-41.669 41.669v50.585c0 44.357 17.273 86.057 48.637 117.421l55.741 55.742c42.388 42.387 110.997 42.393 153.391 0l96.48-96.48c14.888-14.888 14.888-39.112 0-54 0 0 0 0-.001 0-6.004-6.004-13.654-9.763-21.935-10.853l5.877-5.877c14.78-14.779 15.314-38.9 1.19-53.77-6.234-6.564-14.365-10.617-23.217-11.644 10.767-14.758 9.71-35.827-3.903-49.441zm16.244 71.415c8.572 9.025 8.16 23.754-.92 32.833-5.154 5.154-54.677 54.677-60.618 60.619-2.929 2.929-2.929 7.678 0 10.606 2.929 2.929 7.677 2.929 10.607 0l33.282-33.282c9.058-9.06 23.725-9.062 32.786 0 9.04 9.04 9.04 23.747 0 32.787l-96.48 96.48c-36.524 36.525-95.646 36.529-132.176 0l-55.741-55.742c-28.531-28.531-44.244-66.465-44.244-106.815v-50.585c0-14.705 11.964-26.669 26.669-26.669s26.669 11.964 26.669 26.669v29.272c0 13.538 16.412 20.347 25.993 10.766l104.357-104.357c9.078-9.079 23.808-9.491 32.833-.919 9.482 9.007 9.668 23.991.441 33.218l-51.784 51.784c-2.929 2.929-2.929 7.678 0 10.606 2.93 2.929 7.678 2.929 10.607 0 4.023-4.023 71.195-71.197 78.079-78.081 9.061-9.059 23.725-9.062 32.788 0 9.059 9.059 9.063 23.726-.001 32.787-7.727 7.727-70.528 70.528-78.08 78.08-2.929 2.929-2.929 7.678 0 10.606 2.929 2.929 7.677 2.929 10.607 0l61.107-61.107c9.356-9.354 24.321-8.924 33.219.444zm129.886 160.139c4.082 0 7.39-3.309 7.39-7.39s-3.308-7.39-7.39-7.39h-38.173c-4.082 0-7.39 3.309-7.39 7.39v90.596c0 4.081 3.308 7.39 7.39 7.39h38.173c4.082 0 7.39-3.309 7.39-7.39s-3.308-7.39-7.39-7.39h-30.783v-30.518h27.968c4.082 0 7.39-3.309 7.39-7.39s-3.308-7.39-7.39-7.39h-27.968v-30.518zm12.91-149.974c-3.421-2.225-7.998-1.258-10.225 2.162l-22.781 34.996-23.009-35.236c-2.232-3.418-6.813-4.379-10.228-2.147-3.417 2.231-4.379 6.811-2.147 10.228l27.997 42.876-.109 44.495c-.01 4.081 3.291 7.398 7.372 7.408h.018c4.073 0 7.38-3.297 7.39-7.372l.109-44.521 27.773-42.665c2.228-3.419 1.261-7.997-2.16-10.224zm-248.001 129.112-8.501 8.469c-2.935 2.923-2.943 7.672-.021 10.606 2.925 2.935 7.673 2.943 10.606.02l8.501-8.469c2.935-2.923 2.943-7.672.021-10.606-2.925-2.936-7.674-2.943-10.606-.02zm-33.612-45.268-10.235-5.858c-3.594-2.056-8.177-.812-10.235 2.784-2.057 3.595-.811 8.177 2.784 10.235l10.234 5.858c.296.169.79.452.536 1.325-.254.87-.818.848-1.162.83-8.647-.398-15.821 6.71-15.46 15.393.014.34.037.908-.836 1.158-.883.252-1.155-.246-1.322-.54l-5.813-10.26c-2.041-3.604-6.617-4.87-10.223-2.829-3.604 2.042-4.87 6.618-2.828 10.222l5.813 10.261c8.313 14.671 30.688 8.383 30.203-8.411 16.792.553 23.172-21.794 8.544-30.168zm168.054-134.165c1.384-23.636-8.634-46.219-27.313-61.087-18.506-14.73-42.486-19.463-65.01-13.046-24.969-23.501-63.792-26.298-92.294-6.007-3.374 2.402-4.162 7.085-1.761 10.459 2.402 3.374 7.084 4.165 10.46 1.76 23.723-16.888 56.402-13.693 76.015 7.43 2.04 2.198 5.193 2.968 8.016 1.961 18.897-6.74 39.545-3.309 55.232 9.178 15.724 12.517 23.716 31.923 21.378 51.913-.315 2.697.852 5.355 3.052 6.947 21.18 15.328 29.213 43.217 19.536 67.822-1.118 2.844-.4 6.081 1.816 8.185 23.59 22.391 24.057 59.593 1.109 82.54l-94.095 94.099c-2.929 2.929-2.929 7.678 0 10.606 2.93 2.929 7.678 2.929 10.607 0l94.097-94.097c28.148-28.149 27.913-72.519 2.083-100.505 9.033-28.402-.042-59.407-22.928-78.158z"/></g></svg>