<svg id="Capa_1" enable-background="new 0 0 512.012 512.012" height="512" viewBox="0 0 512.012 512.012" width="512" xmlns="http://www.w3.org/2000/svg"><g id="XMLID_838_"><path id="XMLID_1173_" d="m457.336 479.124c-7.548-4.509-14.659-10.032-21.136-16.572-11.001-11.109-19.048-24.106-24.145-37.975 54.914-38.728 89.945-97.47 89.945-163.239 0-116.624-110.138-211.167-246-211.167s-246 94.543-246 211.167 110.138 211.167 246 211.167c28.565 0 55.984-4.194 81.49-11.879 2.221 2.84 4.606 5.599 7.155 8.262 29.536 30.856 72.897 40.035 110.663 27.546 7.789-2.575 9.069-13.104 2.028-17.31z" fill="#a0c8ff"/><g id="XMLID_2359_"><path id="XMLID_1556_" d="m480.799 107.695c16.11-5.234 24.927-22.538 19.692-38.648s-22.538-24.926-38.648-19.692c-5.238 1.702-10.788 5.039-15.718 9.314 2.542-6.01 4.001-12.319 4.001-17.827 0-16.939-13.732-30.671-30.671-30.671s-30.671 13.732-30.671 30.671c0 5.508 1.459 11.817 4.001 17.827-4.93-4.274-10.48-7.612-15.718-9.314-16.11-5.234-33.413 3.582-38.648 19.692-5.234 16.11 3.582 33.413 19.692 38.648 5.238 1.702 11.689 2.264 18.191 1.704-5.589 3.368-10.478 7.615-13.715 12.071-9.957 13.704-6.919 32.885 6.785 42.841 13.704 9.957 32.885 6.919 42.841-6.785 3.237-4.456 5.765-10.418 7.242-16.774 1.476 6.356 4.004 12.318 7.242 16.774 9.957 13.704 29.137 16.742 42.841 6.785s16.742-29.137 6.785-42.841c-3.237-4.456-8.126-8.702-13.715-12.071 6.501.56 12.952-.002 18.191-1.704z" fill="#ff7a7a"/><circle id="XMLID_1662_" cx="419.454" cy="95.378" fill="#fff" r="36.207"/></g><g id="XMLID_1973_"><path id="XMLID_1974_" d="m249.15 211.337c-5.523 0-10 4.477-10 10v79.933c0 4.87 3.507 9.031 8.307 9.855.713.123 1.26.217 10.182.217 4.282 0 10.496-.021 19.581-.072 5.522-.031 9.975-4.533 9.944-10.056-.031-5.504-4.502-9.944-9.999-9.944-.019 0-.038 0-.057 0-6.165.035-12.77.06-17.957.066v-69.999c-.001-5.523-4.478-10-10.001-10z"/><path id="XMLID_1975_" d="m321.163 211.337c-5.523 0-10 4.477-10 10v79.933c0 4.87 3.508 9.032 8.308 9.856.713.122 1.261.216 10.178.216 4.283 0 10.496-.021 19.584-.072 5.522-.031 9.975-4.533 9.944-10.056-.031-5.504-4.502-9.944-9.999-9.944-.019 0-.038 0-.057 0-6.165.035-12.77.06-17.958.066v-69.999c0-5.523-4.477-10-10-10z"/><path id="XMLID_1978_" d="m137.749 301.337v-80c0-5.523-4.477-10-10-10s-10 4.477-10 10v28.628h-35.361v-28.628c0-5.523-4.477-10-10-10s-10 4.477-10 10v80c0 5.523 4.477 10 10 10s10-4.477 10-10v-31.372h35.361v31.372c0 5.523 4.477 10 10 10s10-4.477 10-10z"/><path id="XMLID_1986_" d="m205.15 231.703c5.523 0 10-4.477 10-10s-4.477-10-10-10h-33.401c-5.523 0-10 4.477-10 10v79.27c0 5.523 4.477 10 10 10h33.401c5.523 0 10-4.477 10-10s-4.477-10-10-10h-23.401v-19.635h20.938c5.523 0 10-4.477 10-10s-4.477-10-10-10h-20.938v-19.635z"/><path id="XMLID_1990_" d="m405.163 311.337c27.57 0 50-22.43 50-50s-22.43-50-50-50-50 22.43-50 50 22.43 50 50 50zm0-80c16.542 0 30 13.458 30 30s-13.458 30-30 30-30-13.458-30-30 13.458-30 30-30z"/><path id="XMLID_1994_" d="m512 261.337c0-34.338-9.289-68.367-26.925-98.869 9.169-13.426 9.684-31.603.148-45.721 9.721-3.526 17.619-10.498 22.336-19.758 4.932-9.679 5.8-20.7 2.443-31.032-6.785-20.88-28.962-32.546-49.9-26.525-.746-21.775-18.693-39.261-40.647-39.261s-39.901 17.485-40.647 39.261c-15.419-4.432-31.501.733-41.622 12.097-26.098-7.533-53.37-11.358-81.186-11.358-68.097 0-132.187 22.822-180.462 64.261-48.711 41.815-75.538 97.538-75.538 156.905 0 49.856 18.723 96.914 54.146 136.083 1.974 2.183 4.692 3.292 7.42 3.292 2.392 0 4.791-.853 6.705-2.583 4.096-3.705 4.414-10.028.709-14.125-32.043-35.431-48.98-77.849-48.98-122.667 0-110.923 105.869-201.166 236-201.166 24.604 0 48.736 3.198 71.89 9.512-2.07 9.218-.883 18.782 3.46 27.307 4.718 9.26 12.616 16.231 22.336 19.758-12.196 18.055-7.954 42.75 9.807 55.654 17.762 12.905 42.559 9.307 55.961-7.871 7.968 10.212 19.959 15.625 32.109 15.624 6.16-.001 12.362-1.396 18.098-4.26 14.629 26.572 22.339 55.896 22.339 85.442 0 60.134-31.24 116.654-85.708 155.067-3.698 2.608-5.184 7.375-3.623 11.622 5.769 15.697 14.66 29.68 26.426 41.561 6.705 6.771 14.19 12.691 22.272 17.614-35.047 11.248-74.014 1.394-99.497-25.229-2.288-2.39-4.476-4.916-6.502-7.507-2.54-3.248-6.814-4.604-10.762-3.415-25.225 7.6-51.671 11.453-78.605 11.453-41.626 0-82.547-9.372-118.339-27.101-4.951-2.452-10.948-.426-13.4 4.522-2.451 4.949-.427 10.948 4.522 13.4 38.537 19.089 82.527 29.179 127.217 29.179 26.624 0 52.823-3.516 77.977-10.458 1.123 1.278 2.273 2.532 3.445 3.756 15.59 16.286 35.352 27.642 57.15 32.84 8.954 2.135 18.071 3.199 27.177 3.198 12.413 0 24.801-1.978 36.7-5.913 7.403-2.448 12.532-8.782 13.384-16.529.845-7.677-2.745-14.903-9.369-18.86-6.954-4.154-13.4-9.209-19.158-15.024-7.974-8.052-14.352-17.27-19.021-27.479 55.854-42.074 87.714-102.413 87.714-166.697zm-47.067-202.471c10.839-3.522 22.525 2.432 26.047 13.272 1.707 5.251 1.266 10.852-1.241 15.771-2.507 4.92-6.779 8.569-12.03 10.275h-.001c-3.396 1.103-7.686 1.581-12.245 1.381.125-1.381.199-2.776.199-4.188 0-11.641-4.336-22.282-11.466-30.416 3.576-2.851 7.335-4.99 10.737-6.095zm-45.479 62.718c-14.45 0-26.207-11.756-26.207-26.207s11.756-26.207 26.207-26.207 26.207 11.756 26.207 26.207-11.757 26.207-26.207 26.207zm0-101.413c11.398 0 20.671 9.273 20.671 20.671 0 3.57-.871 7.797-2.47 12.071-5.589-2.405-11.741-3.742-18.201-3.742s-12.612 1.337-18.201 3.742c-1.6-4.275-2.47-8.501-2.47-12.071 0-11.398 9.273-20.671 20.671-20.671zm-58.254 78.013c-10.84-3.522-16.794-15.207-13.271-26.047 3.521-10.839 15.207-16.792 26.046-13.272 3.403 1.106 7.162 3.246 10.739 6.096-7.13 8.134-11.466 18.775-11.466 30.416 0 1.412.074 2.807.199 4.188-4.561.2-8.85-.277-12.247-1.381zm14.049 58.037c-9.221-6.7-11.273-19.652-4.574-28.873 2.101-2.891 5.292-5.801 9.103-8.32 6.389 10.678 16.964 18.567 29.442 21.4-1.218 4.399-2.999 8.331-5.098 11.22-6.699 9.221-19.652 11.273-28.873 4.573zm59.538-4.573c-2.099-2.89-3.88-6.822-5.098-11.221 12.478-2.834 23.052-10.722 29.441-21.4 3.81 2.519 7.002 5.429 9.103 8.32 6.7 9.221 4.648 22.174-4.573 28.873-9.222 6.701-22.174 4.649-28.873-4.572z"/><path id="XMLID_2002_" d="m94.91 410.932c-2.64 0-5.21 1.07-7.07 2.93-1.87 1.86-2.93 4.44-2.93 7.07s1.06 5.21 2.93 7.07c1.86 1.86 4.43 2.93 7.07 2.93 2.63 0 5.2-1.07 7.07-2.93 1.86-1.86 2.93-4.44 2.93-7.07s-1.07-5.21-2.93-7.07c-1.87-1.86-4.44-2.93-7.07-2.93z"/></g></g></svg>