<svg height="496pt" viewBox="0 0 496 496" width="496pt" xmlns="http://www.w3.org/2000/svg"><path d="m488 24v48h-480v-48c0-8.800781 7.199219-16 16-16h448c8.800781 0 16 7.199219 16 16zm0 0" fill="#b4dd7f"/><path d="m488 72v416h-480v-416zm0 0" fill="#e6e9ed"/><path d="m456 432-24 24-24-24-16 16-8-64 64 8-16 16zm0 0" fill="#ff826e"/><g fill="#8cc152"><path d="m456 136v32h-32v-32zm0 0"/><path d="m392 184v32h-32v-32zm0 0"/><path d="m328 128v32h-32v-32zm0 0"/></g><path d="m299.839844 274.398438c-2.398438-2.796876-3.839844-6.398438-3.839844-10.398438 0-8.800781 7.199219-16 16-16s16 7.199219 16 16-7.199219 16-16 16c-4.800781 0-9.199219-2.160156-12.160156-5.601562zm0 0" fill="#ffc729"/><path d="m268.160156 301.601562c2.398438 2.796876 3.839844 6.398438 3.839844 10.398438 0 8.800781-7.199219 16-16 16s-16-7.199219-16-16 7.199219-16 16-16c4.800781 0 9.199219 2.160156 12.160156 5.601562zm0 0" fill="#ffc729"/><path d="m256 384c8.800781 0 16 7.199219 16 16s-7.199219 16-16 16-16-7.199219-16-16c0-3.039062.800781-5.839844 2.320312-8.238281 2.800782-4.640625 7.917969-7.761719 13.679688-7.761719zm0 0" fill="#ffc729"/><path d="m136 104c53.039062 0 96 42.960938 96 96s-42.960938 96-96 96-96-42.960938-96-96 42.960938-96 96-96zm0 0" fill="#fcd770"/><path d="m192 352c0 3.039062-.800781 5.839844-2.320312 8.238281-2.800782 4.640625-7.917969 7.761719-13.679688 7.761719-5.679688 0-10.71875-3.039062-13.519531-7.519531-1.601563-2.480469-2.480469-5.359375-2.480469-8.480469 0-8.800781 7.199219-16 16-16s16 7.199219 16 16zm0 0" fill="#ffc729"/><path d="m168 200-56 40v-80zm0 0" fill="#ff826e"/><path d="m128 440c0 8.835938-7.164062 16-16 16s-16-7.164062-16-16 7.164062-16 16-16 16 7.164062 16 16zm0 0" fill="#ffc729"/><path d="m72 336c0 8.835938-7.164062 16-16 16s-16-7.164062-16-16 7.164062-16 16-16 16 7.164062 16 16zm0 0" fill="#ffc729"/><path d="m472 0h-448c-13.230469 0-24 10.769531-24 24v472h496v-472c0-13.230469-10.769531-24-24-24zm-448 16h448c4.414062 0 8 3.585938 8 8v40h-464v-40c0-4.414062 3.585938-8 8-8zm-8 464v-400h464v400zm0 0"/><path d="m32 32h16v16h-16zm0 0"/><path d="m64 32h16v16h-16zm0 0"/><path d="m96 32h16v16h-16zm0 0"/><path d="m104 144.457031v111.09375l77.769531-55.550781zm16 31.085938 34.230469 24.457031-34.230469 24.457031zm0 0"/><path d="m192 200h16c0-25.632812-13.792969-49.519531-35.992188-62.359375l-8.015624 13.839844c17.273437 10 28.007812 28.582031 28.007812 48.519531zm0 0"/><path d="m153.984375 130.265625c-5.855469-1.496094-11.914063-2.265625-17.984375-2.265625v16c4.734375 0 9.449219.59375 14.015625 1.769531zm0 0"/><path d="m136 304c57.34375 0 104-46.65625 104-104s-46.65625-104-104-104-104 46.65625-104 104 46.65625 104 104 104zm0-192c48.519531 0 88 39.480469 88 88s-39.480469 88-88 88-88-39.480469-88-88 39.480469-88 88-88zm0 0"/><path d="m465.222656 386.097656-90.4375-11.304687 11.304688 90.4375 21.910156-21.917969 24 24 35.3125-35.3125-24-24zm-20.535156 45.902344-12.6875 12.6875-24-24-10.097656 10.089844-4.695313-37.5625 37.5625 4.695312-10.082031 10.089844zm0 0"/><path d="m392 360v-16h-20.6875l14.625-14.625-11.3125-11.3125-14.625 14.625v-20.6875h-16v20.6875l-14.625-14.625-11.3125 11.3125 14.625 14.625h-20.6875v16h20.6875l-14.625 14.625 11.3125 11.3125 14.625-14.625v20.6875h16v-24h-14.625l-9.375-9.375v-13.25l9.375-9.375h13.25l9.375 9.375v14.625zm0 0"/><path d="m280 312c0-3.039062-.625-5.929688-1.664062-8.617188l21.777343-18.664062c3.519531 2.035156 7.542969 3.28125 11.886719 3.28125 13.230469 0 24-10.769531 24-24 0-10.414062-6.710938-19.214844-16-22.527344v-73.472656h16v-48h-16v-24h-16v24h-16v48h16v73.472656c-9.289062 3.3125-16 12.113282-16 22.527344 0 3.039062.625 5.929688 1.664062 8.617188l-21.777343 18.664062c-3.519531-2.035156-7.542969-3.28125-11.886719-3.28125-13.230469 0-24 10.769531-24 24 0 10.414062 6.710938 19.214844 16 22.527344v42.953125c-2.648438.945312-5.046875 2.335937-7.175781 4.085937l-41.304688-24.78125c.3125-1.554687.480469-3.144531.480469-4.785156 0-13.230469-10.769531-24-24-24s-24 10.769531-24 24c0 2.03125.328125 3.976562.808594 5.863281l-39.992188 31.328125-37.144531-39.511718c2.710937-3.886719 4.328125-8.589844 4.328125-13.679688 0-13.230469-10.769531-24-24-24s-24 10.769531-24 24 10.769531 24 24 24c2.265625 0 4.40625-.414062 6.488281-1l41.511719 44.167969v14.304687c-9.289062 3.3125-16 12.113282-16 22.527344 0 13.230469 10.769531 24 24 24s24-10.769531 24-24c0-10.414062-6.710938-19.214844-16-22.527344v-13.578125l41.742188-32.703125c3.992187 2.984375 8.898437 4.808594 14.257812 4.808594 5.785156 0 11.03125-2.144531 15.175781-5.566406l41.304688 24.78125c-.3125 1.554687-.480469 3.144531-.480469 4.785156 0 13.230469 10.769531 24 24 24s24-10.769531 24-24c0-10.414062-6.710938-19.214844-16-22.527344v-42.953125c9.289062-3.304687 16-12.105469 16-22.519531zm24-176h16v16h-16zm-256 200c0-4.414062 3.585938-8 8-8s8 3.585938 8 8-3.585938 8-8 8-8-3.585938-8-8zm264-80c4.414062 0 8 3.585938 8 8s-3.585938 8-8 8-8-3.585938-8-8 3.585938-8 8-8zm-56 48c4.414062 0 8 3.585938 8 8s-3.585938 8-8 8-8-3.585938-8-8 3.585938-8 8-8zm-144 144c-4.414062 0-8-3.585938-8-8s3.585938-8 8-8 8 3.585938 8 8-3.585938 8-8 8zm64-88c-4.414062 0-8-3.585938-8-8s3.585938-8 8-8 8 3.585938 8 8-3.585938 8-8 8zm80 48c-4.414062 0-8-3.585938-8-8s3.585938-8 8-8 8 3.585938 8 8-3.585938 8-8 8zm0 0"/><path d="m432 288h16v-112h16v-48h-16v-32h-16v32h-16v48h16zm0-144h16v16h-16zm0 0"/><path d="m368 288h16v-64h16v-48h-16v-80h-16v80h-16v48h16zm0-96h16v16h-16zm0 0"/></svg>