<svg xmlns="http://www.w3.org/2000/svg" height="511pt" version="1.1" viewBox="-5 0 511 511.99898" width="511pt">
<g id="surface1">
<path d="M 404.984375 205.066406 C 395.234375 209.824219 384.613281 213.804688 373.308594 216.796875 C 372.46875 217.019531 371.628906 217.230469 370.785156 217.4375 C 346.597656 223.484375 322.972656 224.046875 302.621094 220.039062 C 271.867188 213.96875 248.617188 197.449219 242.296875 173.578125 C 233.957031 142.078125 257.558594 107.132812 297.84375 85.613281 C 302.96875 82.882812 307.207031 78.953125 310.292969 74.242188 C 313.371094 69.554688 315.292969 64.085938 315.765625 58.308594 C 317.320312 39.210938 303.65625 22.207031 284.648438 19.6875 C 258.59375 16.214844 220.78125 14.460938 183.449219 24.34375 C 58.03125 57.546875 -16.148438 189.488281 15.347656 315.34375 C 48.15625 446.425781 181.765625 524.933594 311.964844 490.285156 C 418.902344 461.835938 490.46875 364.601562 491.460938 258.550781 C 491.464844 257.703125 491.445312 256.757812 491.390625 255.722656 C 489.050781 213.046875 443.40625 186.308594 404.984375 205.066406 Z M 394.71875 352.4375 C 376.011719 357.386719 356.847656 346.25 351.898438 327.550781 C 346.945312 308.84375 358.085938 289.679688 376.792969 284.726562 C 395.492188 279.777344 414.652344 290.917969 419.609375 309.628906 C 424.558594 328.324219 413.417969 347.484375 394.71875 352.4375 Z M 394.71875 352.4375 " style=" stroke:none;fill-rule:nonzero;fill:rgb(89.803922%,91.372549%,91.764706%);fill-opacity:1;" />
<path d="M 332.035156 405.726562 C 332.035156 429.351562 312.882812 448.507812 289.253906 448.507812 C 265.625 448.507812 246.472656 429.351562 246.472656 405.726562 C 246.472656 382.097656 265.625 362.941406 289.253906 362.941406 C 312.882812 362.941406 332.035156 382.097656 332.035156 405.726562 Z M 332.035156 405.726562 " style=" stroke:none;fill-rule:nonzero;fill:rgb(34.509804%,76.470588%,90.980392%);fill-opacity:1;" />
<path d="M 211.835938 375.953125 C 211.835938 399.578125 192.679688 418.734375 169.050781 418.734375 C 145.421875 418.734375 126.269531 399.578125 126.269531 375.953125 C 126.269531 352.324219 145.421875 333.167969 169.050781 333.167969 C 192.679688 333.167969 211.835938 352.324219 211.835938 375.953125 Z M 211.835938 375.953125 " style=" stroke:none;fill-rule:nonzero;fill:rgb(28.627451%,74.117647%,56.470588%);fill-opacity:1;" />
<path d="M 140.726562 271.585938 C 140.726562 295.214844 121.570312 314.371094 97.945312 314.371094 C 74.316406 314.371094 55.160156 295.214844 55.160156 271.585938 C 55.160156 247.960938 74.316406 228.804688 97.945312 228.804688 C 121.570312 228.804688 140.726562 247.960938 140.726562 271.585938 Z M 140.726562 271.585938 " style=" stroke:none;fill-rule:nonzero;fill:rgb(98.039216%,43.921569%,69.803922%);fill-opacity:1;" />
<path d="M 176.441406 151.019531 C 176.441406 174.648438 157.285156 193.804688 133.65625 193.804688 C 110.03125 193.804688 90.875 174.648438 90.875 151.019531 C 90.875 127.394531 110.03125 108.238281 133.65625 108.238281 C 157.285156 108.238281 176.441406 127.394531 176.441406 151.019531 Z M 176.441406 151.019531 " style=" stroke:none;fill-rule:nonzero;fill:rgb(100%,81.568627%,38.039216%);fill-opacity:1;" />
<path d="M 465.789062 202.320312 L 458.589844 294.589844 L 443.320312 490.378906 C 443.015625 494.332031 440.367188 497.847656 436.300781 500.375 C 432.246094 502.898438 426.746094 504.425781 420.738281 504.398438 C 408.714844 504.347656 398.832031 498.09375 398.285156 490.191406 L 384.660156 294.28125 L 378.238281 201.953125 Z M 465.789062 202.320312 " style=" stroke:none;fill-rule:nonzero;fill:rgb(100%,81.568627%,38.039216%);fill-opacity:1;" />
<path d="M 431.589844 502.609375 C 423.671875 500.476562 417.980469 495.457031 417.5625 489.511719 L 402.929688 202.058594 L 378.238281 201.953125 L 384.664062 294.277344 L 398.285156 490.191406 C 398.832031 498.09375 408.71875 504.34375 420.734375 504.394531 C 424.660156 504.414062 428.371094 503.769531 431.589844 502.609375 Z M 431.589844 502.609375 " style=" stroke:none;fill-rule:nonzero;fill:rgb(93.72549%,53.72549%,18.823529%);fill-opacity:1;" />
<path d="M 458.589844 294.59375 L 465.789062 202.320312 L 402.925781 202.0625 L 378.238281 201.953125 L 384.660156 294.28125 L 407.628906 294.375 Z M 458.589844 294.59375 " style=" stroke:none;fill-rule:nonzero;fill:rgb(24.313725%,29.411765%,36.078431%);fill-opacity:1;" />
<path d="M 378.238281 201.957031 C 338.171875 183.949219 333.964844 123.71875 369.796875 88.191406 C 405.625 52.664062 421.320312 31.601562 421.421875 7.601562 C 421.421875 7.601562 550.550781 139.847656 465.785156 202.324219 Z M 378.238281 201.957031 " style=" stroke:none;fill-rule:nonzero;fill:rgb(98.039216%,43.921569%,69.803922%);fill-opacity:1;" />
<path d="M 414.484375 202.105469 L 378.238281 201.953125 C 338.179688 183.945312 333.964844 123.71875 369.796875 88.199219 C 405.625 52.667969 421.324219 31.597656 421.425781 7.601562 C 434.390625 79.054688 362.472656 121.375 414.484375 202.105469 Z M 414.484375 202.105469 " style=" stroke:none;fill-rule:nonzero;fill:rgb(86.666667%,12.941176%,35.686275%);fill-opacity:1;" />
<path d="M 407.628906 294.375 L 402.925781 202.0625 L 378.238281 201.953125 L 384.660156 294.28125 Z M 407.628906 294.375 " style=" stroke:none;fill-rule:nonzero;fill:rgb(14.117647%,19.215686%,25.882353%);fill-opacity:1;" />
<path d="M 328.523438 424.328125 C 332.570312 425.4375 336.753906 423.054688 337.863281 419.007812 C 340.203125 410.476562 340.234375 401.421875 337.960938 392.832031 C 334.515625 379.820312 326.210938 368.933594 314.578125 362.167969 C 302.945312 355.40625 289.371094 353.574219 276.363281 357.019531 C 263.351562 360.464844 252.460938 368.769531 245.699219 380.402344 C 238.933594 392.035156 237.105469 405.609375 240.550781 418.617188 C 246.523438 441.171875 266.960938 456.113281 289.265625 456.113281 C 293.519531 456.113281 297.847656 455.570312 302.148438 454.429688 C 309.644531 452.445312 316.394531 448.882812 322.214844 443.84375 C 325.390625 441.097656 325.734375 436.296875 322.988281 433.121094 C 320.238281 429.949219 315.4375 429.605469 312.265625 432.351562 C 308.210938 435.863281 303.496094 438.347656 298.261719 439.734375 C 279.496094 444.699219 260.210938 433.480469 255.246094 414.730469 C 252.839844 405.644531 254.117188 396.167969 258.839844 388.042969 C 263.5625 379.917969 271.167969 374.121094 280.253906 371.714844 C 289.335938 369.308594 298.8125 370.585938 306.9375 375.308594 C 315.0625 380.03125 320.863281 387.636719 323.265625 396.722656 C 324.855469 402.722656 324.835938 409.042969 323.203125 414.988281 C 322.09375 419.039062 324.476562 423.21875 328.523438 424.328125 Z M 328.523438 424.328125 " style=" stroke:none;fill-rule:nonzero;fill:rgb(0%,0%,0%);fill-opacity:1;" />
<path d="M 143.730469 419.507812 C 151.523438 424.042969 160.1875 426.355469 168.96875 426.355469 C 173.296875 426.355469 177.652344 425.792969 181.945312 424.65625 C 194.957031 421.214844 205.847656 412.910156 212.609375 401.273438 C 219.375 389.640625 221.203125 376.066406 217.757812 363.058594 C 214.3125 350.050781 206.007812 339.160156 194.375 332.394531 C 182.742188 325.628906 169.167969 323.804688 156.160156 327.246094 C 143.148438 330.691406 132.257812 338.996094 125.496094 350.628906 C 118.730469 362.265625 116.902344 375.835938 120.347656 388.847656 C 123.792969 401.855469 132.09375 412.746094 143.730469 419.507812 Z M 138.636719 358.269531 C 143.359375 350.144531 150.964844 344.347656 160.050781 341.941406 C 163.046875 341.148438 166.089844 340.753906 169.109375 340.753906 C 175.242188 340.753906 181.292969 342.371094 186.734375 345.535156 C 194.859375 350.257812 200.65625 357.863281 203.0625 366.949219 C 205.46875 376.03125 204.191406 385.511719 199.46875 393.632812 C 194.746094 401.757812 187.140625 407.558594 178.054688 409.960938 C 168.972656 412.367188 159.496094 411.089844 151.371094 406.367188 C 143.246094 401.644531 137.445312 394.039062 135.042969 384.957031 C 132.636719 375.871094 133.914062 366.394531 138.636719 358.269531 Z M 138.636719 358.269531 " style=" stroke:none;fill-rule:nonzero;fill:rgb(0%,0%,0%);fill-opacity:1;" />
<path d="M 141.5 296.910156 C 148.265625 285.277344 150.09375 271.703125 146.648438 258.691406 C 139.535156 231.835938 111.902344 215.765625 85.050781 222.882812 C 58.195312 229.992188 42.128906 257.625 49.238281 284.480469 C 52.683594 297.492188 60.988281 308.378906 72.621094 315.144531 C 80.414062 319.675781 89.078125 321.992188 97.859375 321.992188 C 102.1875 321.992188 106.542969 321.429688 110.835938 320.292969 C 123.847656 316.847656 134.738281 308.542969 141.5 296.910156 Z M 128.359375 289.269531 C 123.636719 297.394531 116.03125 303.191406 106.945312 305.597656 C 97.863281 308 88.386719 306.726562 80.261719 302.003906 C 72.136719 297.28125 66.339844 289.675781 63.933594 280.589844 C 58.96875 261.835938 70.1875 242.542969 88.941406 237.578125 C 91.945312 236.78125 94.964844 236.402344 97.9375 236.402344 C 113.511719 236.402344 127.785156 246.835938 131.957031 262.582031 C 134.359375 271.667969 133.082031 281.144531 128.359375 289.269531 Z M 128.359375 289.269531 " style=" stroke:none;fill-rule:nonzero;fill:rgb(0%,0%,0%);fill-opacity:1;" />
<path d="M 158.980469 107.464844 C 147.347656 100.699219 133.773438 98.871094 120.765625 102.316406 C 107.753906 105.757812 96.863281 114.0625 90.097656 125.699219 C 83.335938 137.332031 81.507812 150.90625 84.953125 163.914062 C 88.394531 176.921875 96.699219 187.8125 108.335938 194.578125 C 116.128906 199.109375 124.792969 201.425781 133.574219 201.425781 C 137.902344 201.425781 142.253906 200.863281 146.550781 199.726562 C 159.5625 196.28125 170.449219 187.976562 177.214844 176.34375 C 183.980469 164.707031 185.808594 151.136719 182.363281 138.125 C 178.917969 125.117188 170.613281 114.226562 158.980469 107.464844 Z M 164.074219 168.703125 C 159.351562 176.828125 151.746094 182.625 142.660156 185.03125 C 133.578125 187.4375 124.101562 186.160156 115.976562 181.4375 C 107.851562 176.710938 102.050781 169.109375 99.648438 160.023438 C 97.242188 150.9375 98.519531 141.460938 103.242188 133.339844 C 107.964844 125.214844 115.570312 119.414062 124.652344 117.007812 C 127.652344 116.214844 130.695312 115.824219 133.714844 115.824219 C 139.847656 115.824219 145.898438 117.441406 151.339844 120.605469 C 159.464844 125.328125 165.265625 132.933594 167.667969 142.015625 C 170.074219 151.101562 168.796875 160.578125 164.074219 168.703125 Z M 164.074219 168.703125 " style=" stroke:none;fill-rule:nonzero;fill:rgb(0%,0%,0%);fill-opacity:1;" />
<path d="M 501.9375 153.300781 C 507.433594 85.652344 430.152344 5.664062 426.859375 2.289062 C 424.707031 0.0859375 421.433594 -0.601562 418.570312 0.554688 C 415.710938 1.710938 413.835938 4.484375 413.820312 7.566406 C 413.726562 29.859375 397.121094 50.390625 364.441406 82.792969 C 343.78125 103.28125 334.046875 133.113281 339.039062 160.644531 C 342.753906 181.136719 354.292969 197.699219 370.957031 206.796875 L 371.144531 209.488281 C 370.128906 209.753906 369.097656 210.027344 368.9375 210.070312 C 346.546875 215.667969 324.125 216.539062 304.09375 212.589844 C 275.28125 206.902344 254.925781 191.59375 249.640625 171.636719 C 242.472656 144.566406 263.285156 112.691406 301.429688 92.320312 C 307.578125 89.035156 312.84375 84.226562 316.648438 78.414062 C 320.46875 72.585938 322.78125 65.84375 323.339844 58.921875 C 325.222656 35.75 308.667969 15.199219 285.652344 12.144531 C 259.578125 8.6875 220.34375 6.722656 181.5 17.003906 C 157.746094 23.292969 135.230469 33.164062 114.574219 46.34375 C 111.035156 48.601562 109.996094 53.300781 112.253906 56.839844 C 114.515625 60.378906 119.210938 61.414062 122.75 59.160156 C 142.078125 46.824219 163.15625 37.585938 185.390625 31.699219 C 221.828125 22.054688 258.9375 23.933594 283.652344 27.210938 C 298.636719 29.203125 309.417969 42.59375 308.191406 57.699219 C 307.835938 62.09375 306.363281 66.378906 303.9375 70.085938 C 301.519531 73.773438 298.175781 76.828125 294.269531 78.917969 C 273.089844 90.226562 256.203125 105.035156 245.445312 121.742188 C 233.976562 139.550781 230.347656 158.152344 234.949219 175.53125 C 241.859375 201.621094 265.988281 220.5625 301.152344 227.503906 C 310.351562 229.320312 319.976562 230.222656 329.847656 230.222656 C 343.675781 230.222656 357.976562 228.441406 372.21875 224.914062 L 375.851562 277.125 C 375.515625 277.207031 375.183594 277.285156 374.84375 277.375 C 352.128906 283.390625 338.535156 306.773438 344.546875 329.492188 C 349.1875 347.027344 364.054688 359.386719 381.683594 361.027344 L 387.582031 445.835938 C 364.226562 462.964844 338.152344 475.449219 310.011719 482.945312 C 248.945312 499.195312 185.339844 490.46875 130.90625 458.375 C 76.488281 426.289062 38.066406 374.839844 22.71875 313.503906 C 11.628906 269.195312 13.71875 222.800781 28.761719 179.339844 C 43.511719 136.714844 69.648438 99.6875 104.339844 72.261719 C 107.632812 69.660156 108.191406 64.878906 105.589844 61.585938 C 102.984375 58.292969 98.207031 57.734375 94.914062 60.339844 C 57.941406 89.566406 30.097656 128.996094 14.394531 174.367188 C -1.613281 220.625 -3.835938 270.015625 7.972656 317.191406 C 24.316406 382.507812 65.230469 437.296875 123.183594 471.464844 C 162.09375 494.410156 205.398438 506.136719 249.339844 506.136719 C 270.859375 506.136719 292.542969 503.324219 313.921875 497.632812 C 340.824219 490.464844 365.953125 479.015625 388.8125 463.558594 L 390.703125 490.714844 C 391.535156 502.78125 404.433594 511.929688 420.703125 512 C 420.765625 512 420.824219 512 420.882812 512 C 428.058594 512 434.957031 510.164062 440.308594 506.828125 C 446.648438 502.894531 450.410156 497.261719 450.898438 490.96875 L 458.589844 392.320312 C 484.617188 352.207031 498.609375 306.027344 499.054688 258.644531 C 499.070312 257.578125 499.039062 256.449219 498.972656 255.308594 C 497.894531 235.78125 488.601562 218.109375 473.304688 206.117188 C 490.574219 192.300781 500.210938 174.550781 501.9375 153.300781 Z M 354 157.933594 C 349.886719 135.257812 357.988281 110.601562 375.148438 93.589844 C 403.269531 65.703125 420.480469 45.5 426.550781 24.652344 C 447.203125 48.730469 490.585938 105.339844 486.789062 152.070312 C 485.378906 169.425781 477.667969 183.398438 463.246094 194.707031 L 379.9375 194.359375 C 366.238281 187.640625 357.050781 174.769531 354 157.933594 Z M 386.390625 209.59375 L 457.570312 209.890625 L 451.5625 286.960938 L 391.753906 286.707031 Z M 359.238281 325.605469 C 355.535156 311.597656 363.410156 297.210938 376.925781 292.621094 L 380.605469 345.519531 C 370.386719 343.59375 362 336.035156 359.238281 325.605469 Z M 435.742188 489.792969 C 435.640625 491.097656 434.351562 492.636719 432.285156 493.921875 C 429.34375 495.753906 425.191406 496.796875 420.882812 496.796875 C 420.84375 496.796875 420.804688 496.796875 420.769531 496.796875 C 411.96875 496.761719 406.066406 492.550781 405.867188 489.664062 L 392.808594 301.914062 L 450.378906 302.15625 Z M 483.796875 256.171875 C 483.84375 256.980469 483.863281 257.753906 483.855469 258.484375 C 483.539062 292.359375 475.851562 325.578125 461.414062 356.132812 L 471.605469 225.46875 C 478.839844 234.007812 483.160156 244.667969 483.796875 256.171875 Z M 483.796875 256.171875 " style=" stroke:none;fill-rule:nonzero;fill:rgb(0%,0%,0%);fill-opacity:1;" />
</g>
</svg>