<svg id="Capa_1" enable-background="new 0 0 512.732 512.732" height="512" viewBox="0 0 512.732 512.732" width="512" xmlns="http://www.w3.org/2000/svg"><g><g><path d="m373.84 104.976v-55.971c0-1.957 1.586-3.543 3.543-3.543h57.138c1.957 0 3.543 1.586 3.543 3.543v116.244z" fill="#0593fc"/></g><g><path d="m438.066 49.004v116.25l-20-18.77v-97.48c0-1.96-1.59-3.54-3.54-3.54h20c1.95 0 3.54 1.58 3.54 3.54z" fill="#0182fc"/></g><g><path d="m242.708 34.375-168.04 160.531v310.326h181.698 181.698v-309.65l-171.722-161.307c-6.654-6.25-17.033-6.206-23.634.1z" fill="#f5f8f9"/></g><g><path d="m438.066 195.584v309.65h-20v-309.65l-171.72-161.31c-.57-.53-1.16-1.02-1.77-1.45 6.57-4.71 15.71-4.24 21.77 1.45z" fill="#e8edf2"/></g><g><path d="m320.513 505.387h-128.297v-148.197c0-35.428 28.72-64.149 64.149-64.149 35.428 0 64.149 28.72 64.149 64.149v148.197z" fill="#e49280"/></g><g><path d="m320.516 357.194v148.19h-20v-148.19c0-17.71-7.18-33.75-18.79-45.36-9.38-9.38-21.65-15.87-35.36-18.01 3.26-.52 6.6-.78 10-.78 17.72 0 33.75 7.18 45.36 18.79s18.79 27.65 18.79 45.36z" fill="#dd7f66"/></g><g><g><circle cx="256.366" cy="189.376" fill="#8ac9fe" r="36.815"/></g><g><path d="m293.18 189.375c0 20.329-16.485 36.814-36.814 36.814-14.873 0-27.692-8.827-33.501-21.528 5.122 2.703 10.971 4.237 17.164 4.237 20.339 0 36.824-16.485 36.824-36.814 0-5.446-1.18-10.626-3.313-15.276 11.677 6.173 19.64 18.441 19.64 32.567z" fill="#60b7ff"/></g></g><g><g><path d="m476.263 253.553c-5.426 0-10.863-1.984-15.132-5.99l-206.677-193.966-202.703 193.824c-8.828 8.442-22.829 8.129-31.272-.7-8.442-8.829-8.129-22.83.7-31.272l206.082-197.055c15.088-14.427 38.832-14.539 54.055-.252l210.086 197.165c8.907 8.359 9.351 22.356.992 31.264-4.352 4.638-10.236 6.982-16.131 6.982z" fill="#60b7ff"/></g></g><g><g><path d="m492.396 246.574c-4.35 4.64-10.24 6.98-16.13 6.98-.67 0-1.35-.03-2.02-.09 6.88-8.92 5.98-21.77-2.39-29.63l-210.09-197.16c-8.96-8.41-20.88-11.84-32.24-10.29 15.11-12.4 37.31-11.83 51.79 1.76l210.09 197.16c8.9 8.36 9.35 22.36.99 31.27z" fill="#26a6fe"/></g></g><g><path d="m212.051 189.376c0 24.436 19.879 44.315 44.315 44.315s44.315-19.879 44.315-44.315-19.879-44.315-44.315-44.315-44.315 19.879-44.315 44.315zm44.315-29.315c16.164 0 29.315 13.151 29.315 29.315s-13.151 29.315-29.315 29.315-29.315-13.151-29.315-29.315 13.151-29.315 29.315-29.315z"/><path d="m496.535 209.839-50.972-47.837v-112.997c0-6.089-4.954-11.043-11.042-11.043h-57.138c-6.089 0-11.043 4.954-11.043 11.043v38.646l-79.892-74.978c-18.127-17.014-46.403-16.881-64.371.3l-111.783 106.888c-2.994 2.863-3.1 7.61-.238 10.604 2.863 2.994 7.611 3.1 10.604.238l111.784-106.888c12.209-11.675 31.422-11.764 43.74-.204l210.086 197.165c5.877 5.516 6.171 14.785.655 20.663-2.793 2.976-6.58 4.614-10.664 4.614-3.727 0-7.278-1.406-9.999-3.959l-206.676-193.966c-2.904-2.727-7.436-2.706-10.315.048l-202.704 193.824c-5.826 5.57-15.097 5.364-20.668-.462-5.57-5.826-5.363-15.098.463-20.668l69.838-66.778c2.994-2.863 3.1-7.61.238-10.604-2.863-2.994-7.611-3.101-10.604-.238l-69.837 66.778c-11.805 11.287-12.225 30.072-.939 41.877 11.287 11.803 30.072 12.224 41.875.938l10.234-9.786v262.176c0 4.142 3.358 7.5 7.5 7.5h363.396c4.142 0 7.5-3.358 7.5-7.5v-261.995l10.435 9.793c5.513 5.173 12.709 8.022 20.264 8.021 8.151 0 16.024-3.408 21.601-9.35 11.177-11.907 10.58-30.688-1.328-41.863zm-65.971-61.914-49.223-46.196v-48.767h49.223zm0 349.807h-102.551v-87.813c0-4.142-3.358-7.5-7.5-7.5s-7.5 3.358-7.5 7.5v87.813h-113.298v-140.542c0-31.236 25.413-56.648 56.649-56.648s56.648 25.413 56.648 56.648v17.22c0 4.142 3.358 7.5 7.5 7.5s7.5-3.358 7.5-7.5v-17.22c0-39.507-32.141-71.648-71.648-71.648s-71.649 32.141-71.649 71.648v140.542h-102.547v-269.019l172.334-164.785 176.062 165.233z"/></g></g></svg>