<svg id="Capa_1" enable-background="new 0 0 510 510" height="512" viewBox="0 0 510 510" width="512" xmlns="http://www.w3.org/2000/svg"><g><path d="m152.384 203.734-58.814-20.17c-51.2 27.19-86.07 81.07-86.07 143.09 0 89.43 72.5 161.93 161.93 161.93 31.32 0 60.57-8.9 85.36-24.3l15.844-119.699z" fill="#00f2a6"/><path d="m417.43 184.323s-137.486 86.219-138.023 87.829-30.046 164.717-30.046 164.717l5.429 27.414c24.79 15.4 54.04 24.3 85.36 24.3 89.43 0 161.93-72.5 161.93-161.93 0-61.44-34.22-114.89-84.65-142.33z" fill="#01c0fa"/><g id="XMLID_736_"><g><path d="m417.43 183.343c0-89.43-72.5-161.93-161.93-161.93s-161.93 72.5-161.93 161.93v.22c.051-.027.103-.052.154-.079l51.756 47.385 250.817-16.808 20.638-29.998c.164.089.332.171.495.26 0-.32 0-.65 0-.98z" fill="#ee6161"/><path d="m169.43 164.723c-27.41 0-53.23 6.81-75.86 18.84.08 61.36 34.29 114.72 84.65 142.12l25.996-2.805 50.574-70.675v-63.18c-24.79-15.4-54.04-24.3-85.36-24.3z" fill="#fee45a"/><path d="m340.15 164.723c-31.32 0-60.57 8.9-85.36 24.3l-8.134 41.846 51.599 95.584h33.106c50.93-27.06 85.7-80.51 86.07-142.13-22.961-12.5-49.291-19.6-77.281-19.6z" fill="#feaee1"/><path d="m331.36 326.453c-22.63 12.02-48.45 18.83-75.86 18.83-27.99 0-54.31-7.1-77.28-19.6.34-57.7 30.86-108.25 76.57-136.66 45.91 28.54 76.5 79.41 76.57 137.43z" fill="#f9f7f8"/><path d="m255.5 345.283c27.41 0 53.23-6.81 75.86-18.83v.2c0 58.1-30.6 109.06-76.57 137.63-45.97-28.57-76.57-79.53-76.57-137.63 0-.32 0-.65 0-.97 22.97 12.5 49.29 19.6 77.28 19.6z" fill="#99e6fc"/></g></g><g><path d="m315.049 240.006c-2.122-3.558-6.725-4.724-10.283-2.601-3.558 2.122-4.722 6.725-2.601 10.283 5.142 8.624 9.452 17.786 12.81 27.231 1.092 3.072 3.982 4.99 7.067 4.99.834 0 1.682-.14 2.512-.435 3.903-1.388 5.942-5.676 4.555-9.579-3.686-10.368-8.416-20.424-14.06-29.889z"/><path d="m306.419 420.514c2.488 0 4.921-1.237 6.348-3.496 5.955-9.427 10.991-19.482 14.969-29.887 1.479-3.869-.459-8.205-4.328-9.684s-8.204.458-9.684 4.328c-3.624 9.479-8.212 18.642-13.639 27.232-2.212 3.502-1.167 8.134 2.335 10.346 1.244.786 2.63 1.161 3.999 1.161z"/><path d="m424.886 179.729c-.941-45.664-19.668-87.979-52.987-119.492-3.011-2.847-7.758-2.714-10.603.295-2.846 3.01-2.714 7.756.295 10.603 28.378 26.84 45.144 62.274 47.923 100.762-21.074-9.426-44.407-14.676-68.946-14.676-30.667 0-59.941 8.015-85.568 23.074-25.628-15.059-54.902-23.074-85.568-23.074-24.138 0-47.107 5.085-67.908 14.221 6.098-79.613 72.828-142.526 153.976-142.526 28.948 0 57.175 8.066 81.629 23.326 3.514 2.192 8.141 1.122 10.333-2.392 2.193-3.514 1.122-8.141-2.392-10.333-26.839-16.748-57.812-25.6-89.57-25.6-92.026 0-167.149 73.748-169.379 165.248-51.376 29.133-86.121 84.325-86.121 147.487 0 51.216 22.819 99.148 62.607 131.506 1.391 1.131 3.064 1.682 4.728 1.681 2.179 0 4.341-.945 5.823-2.768 2.613-3.213 2.127-7.937-1.087-10.551-36.269-29.496-57.071-73.186-57.071-119.868 0-54.683 28.57-102.815 71.565-130.263 4.379 57.257 37.343 106.643 84.611 133.878.19 8.945 1.08 17.891 2.658 26.643.654 3.627 3.813 6.171 7.372 6.171.442 0 .89-.04 1.339-.121 4.077-.735 6.785-4.635 6.05-8.711-.959-5.318-1.632-10.717-2.031-16.141 21.071 9.422 44.4 14.671 68.934 14.671 24.134 0 47.1-5.083 67.899-14.217-.403 5.271-1.063 10.517-1.996 15.687-.735 4.076 1.974 7.977 6.05 8.711.45.081.897.121 1.339.121 3.559 0 6.718-2.544 7.372-6.171 1.545-8.567 2.429-17.318 2.644-26.073 47.638-27.014 80.972-76.433 85.571-133.835 42.467 27.547 70.62 75.37 70.62 129.651 0 85.154-69.278 154.432-154.432 154.432-25.254 0-49.611-6.047-71.404-17.438 6.768-4.948 13.217-10.427 19.29-16.421 2.948-2.91 2.978-7.659.068-10.606-2.91-2.948-7.659-2.978-10.606-.068-7.109 7.018-14.784 13.26-22.917 18.694-8.132-5.435-15.808-11.676-22.917-18.694-2.947-2.91-7.696-2.879-10.606.068s-2.879 7.696.068 10.606c6.072 5.995 12.521 11.474 19.29 16.421-21.792 11.392-46.149 17.438-71.404 17.438-25.079 0-49.007-5.829-71.121-17.324-3.675-1.911-8.204-.479-10.114 3.196s-.479 8.203 3.196 10.114c23.93 12.439 50.915 19.014 78.039 19.014 30.535 0 59.875-8.055 85.568-23.14 25.693 15.085 55.033 23.14 85.568 23.14 93.425 0 169.432-76.007 169.432-169.432.005-62.751-34.284-117.642-85.109-146.924zm-86.525 133.885c-.347-4.524-.87-9.035-1.573-13.499-.644-4.092-4.489-6.89-8.574-6.243-4.092.644-6.887 4.482-6.243 8.574 1.007 6.399 1.608 12.901 1.81 19.391-20.6 10.198-43.781 15.943-68.282 15.943-24.892 0-48.422-5.928-69.267-16.433.217-6.327.815-12.663 1.796-18.901.644-4.092-2.151-7.931-6.243-8.574-4.094-.648-7.931 2.151-8.574 6.243-.671 4.262-1.177 8.566-1.524 12.883-41.206-26.729-68.927-72.55-70.537-124.835 20.6-10.198 43.781-15.943 68.281-15.943 25.362 0 49.679 6.014 71.417 17.382-8.148 5.966-15.835 12.709-22.97 20.198-2.857 2.999-2.742 7.747.257 10.604 3 2.857 7.746 2.742 10.604-.257 8.036-8.436 16.843-15.828 26.261-22.131 9.418 6.303 18.224 13.696 26.261 22.131 2.857 3 7.605 3.115 10.604.257 2.999-2.857 3.114-7.604.257-10.604-7.135-7.489-14.822-14.233-22.97-20.198 21.738-11.368 46.055-17.382 71.417-17.382 24.89 0 48.419 5.927 69.262 16.431-1.781 52.483-29.868 98.407-71.47 124.963z"/><path d="m203.581 420.514c1.369 0 2.755-.375 3.998-1.16 3.502-2.212 4.548-6.844 2.335-10.346-5.426-8.59-10.015-17.752-13.639-27.232-1.479-3.87-5.815-5.806-9.684-4.328-3.869 1.479-5.807 5.814-4.328 9.684 3.978 10.405 9.014 20.46 14.969 29.887 1.428 2.258 3.861 3.495 6.349 3.495z"/><path d="m205.233 237.405c-3.557-2.12-8.161-.957-10.283 2.601-5.644 9.465-10.374 19.521-14.06 29.888-1.387 3.903.652 8.191 4.555 9.579.831.295 1.678.435 2.512.435 3.084 0 5.975-1.917 7.067-4.99 3.357-9.445 7.667-18.607 12.81-27.231 2.122-3.557.958-8.16-2.601-10.282z"/></g></g></svg>